<svg width="804" height="487" viewBox="0 0 804 487" fill="none" xmlns="http://www.w3.org/2000/svg">
<path d="M803.038 386.742C803.038 414.356 780.652 436.742 753.038 436.742H551.293C543.929 436.742 536.691 438.655 530.289 442.293L456.159 484.409C441.363 492.816 424.693 476.827 432.477 461.693C438.337 450.299 430.064 436.742 417.252 436.742H50C22.3858 436.742 0 414.356 0 386.742V50.8125C0 23.1983 22.3858 0.8125 50 0.8125H753.038C780.652 0.8125 803.038 23.1983 803.038 50.8125V386.742Z" fill="white" fill-opacity="0.95"/>
<path opacity="0.25" d="M468.623 465.971L467.532 464.294L468.623 465.971ZM521.443 431.596L520.352 429.919L521.443 431.596ZM751.61 11H750.116V15H751.61V11ZM747.128 11H744.14V15H747.128V11ZM741.153 11H738.165V15H741.153V11ZM735.177 11H732.189V15H735.177V11ZM729.201 11H726.214V15H729.201V11ZM723.226 11H720.238V15H723.226V11ZM717.25 11H714.263V15H717.25V11ZM711.275 11H708.287V15H711.275V11ZM705.299 11H702.311V15H705.299V11ZM699.324 11H696.336V15H699.324V11ZM693.348 11H690.36V15H693.348V11ZM687.372 11H684.385V15H687.372V11ZM681.397 11H678.409V15H681.397V11ZM675.421 11H672.433V15H675.421V11ZM669.446 11H666.458V15H669.446V11ZM663.47 11H660.482V15H663.47V11ZM657.494 11H654.507V15H657.494V11ZM651.519 11H648.531V15H651.519V11ZM645.543 11H642.555V15H645.543V11ZM639.568 11H636.58V15H639.568V11ZM633.592 11H630.604V15H633.592V11ZM627.617 11H624.629V15H627.617V11ZM621.641 11H618.653V15H621.641V11ZM615.665 11H612.677V15H615.665V11ZM609.69 11H606.702V15H609.69V11ZM603.714 11H600.726V15H603.714V11ZM597.739 11H594.751V15H597.739V11ZM591.763 11H588.775V15H591.763V11ZM585.787 11H582.8V15H585.787V11ZM579.812 11H576.824V15H579.812V11ZM573.836 11H570.848V15H573.836V11ZM567.861 11H564.873V15H567.861V11ZM561.885 11H558.897V15H561.885V11ZM555.909 11H552.922V15H555.909V11ZM549.934 11H546.946V15H549.934V11ZM543.958 11H540.97V15H543.958V11ZM537.983 11H534.995V15H537.983V11ZM532.007 11H529.019V15H532.007V11ZM526.031 11H523.044V15H526.031V11ZM520.056 11H517.068V15H520.056V11ZM514.08 11H511.093V15H514.08V11ZM508.105 11H505.117V15H508.105V11ZM502.129 11H499.141V15H502.129V11ZM496.154 11H493.166V15H496.154V11ZM490.178 11H487.19V15H490.178V11ZM484.202 11H481.215V15H484.202V11ZM478.227 11H475.239V15H478.227V11ZM472.251 11H469.263V15H472.251V11ZM466.276 11H463.288V15H466.276V11ZM460.3 11H457.312V15H460.3V11ZM454.324 11H451.337V15H454.324V11ZM448.349 11H445.361V15H448.349V11ZM442.373 11H439.385V15H442.373V11ZM436.398 11H433.41V15H436.398V11ZM430.422 11H427.434V15H430.422V11ZM424.447 11H421.459V15H424.447V11Z" fill="#E8E8E8"/>
</svg>
