<svg width="1920" height="7" viewBox="0 0 1920 7" fill="none" xmlns="http://www.w3.org/2000/svg">
<path d="M14 7C14 3.13401 10.866 0 7 0C3.13401 0 0 3.13401 0 7H14Z" fill="white"/>
<path d="M28 7C28 3.13401 24.866 0 21 0C17.134 0 14 3.13401 14 7H28Z" fill="white"/>
<path d="M42 7C42 3.13401 38.866 0 35 0C31.134 0 28 3.13401 28 7H42Z" fill="white"/>
<path d="M56 7C56 3.13401 52.866 0 49 0C45.134 0 42 3.13401 42 7H56Z" fill="white"/>
<path d="M70 7C70 3.13401 66.866 0 63 0C59.134 0 56 3.13401 56 7H70Z" fill="white"/>
<path d="M84 7C84 3.13401 80.866 0 77 0C73.134 0 70 3.13401 70 7H84Z" fill="white"/>
<path d="M98 7C98 3.13401 94.866 0 91 0C87.134 0 84 3.13401 84 7H98Z" fill="white"/>
<path d="M112 7C112 3.13401 108.866 0 105 0C101.134 0 98 3.13401 98 7H112Z" fill="white"/>
<path d="M126 7C126 3.13401 122.866 0 119 0C115.134 0 112 3.13401 112 7H126Z" fill="white"/>
<path d="M140 7C140 3.13401 136.866 0 133 0C129.134 0 126 3.13401 126 7H140Z" fill="white"/>
<path d="M154 7C154 3.13401 150.866 0 147 0C143.134 0 140 3.13401 140 7H154Z" fill="white"/>
<path d="M168 7C168 3.13401 164.866 0 161 0C157.134 0 154 3.13401 154 7H168Z" fill="white"/>
<path d="M182 7C182 3.13401 178.866 0 175 0C171.134 0 168 3.13401 168 7H182Z" fill="white"/>
<path d="M196 7C196 3.13401 192.866 0 189 0C185.134 0 182 3.13401 182 7H196Z" fill="white"/>
<path d="M210 7C210 3.13401 206.866 0 203 0C199.134 0 196 3.13401 196 7H210Z" fill="white"/>
<path d="M224 7C224 3.13401 220.866 0 217 0C213.134 0 210 3.13401 210 7H224Z" fill="white"/>
<path d="M238 7C238 3.13401 234.866 0 231 0C227.134 0 224 3.13401 224 7H238Z" fill="white"/>
<path d="M252 7C252 3.13401 248.866 0 245 0C241.134 0 238 3.13401 238 7H252Z" fill="white"/>
<path d="M266 7C266 3.13401 262.866 0 259 0C255.134 0 252 3.13401 252 7H266Z" fill="white"/>
<path d="M280 7C280 3.13401 276.866 0 273 0C269.134 0 266 3.13401 266 7H280Z" fill="white"/>
<path d="M294 7C294 3.13401 290.866 0 287 0C283.134 0 280 3.13401 280 7H294Z" fill="white"/>
<path d="M308 7C308 3.13401 304.866 0 301 0C297.134 0 294 3.13401 294 7H308Z" fill="white"/>
<path d="M322 7C322 3.13401 318.866 0 315 0C311.134 0 308 3.13401 308 7H322Z" fill="white"/>
<path d="M336 7C336 3.13401 332.866 0 329 0C325.134 0 322 3.13401 322 7H336Z" fill="white"/>
<path d="M350 7C350 3.13401 346.866 0 343 0C339.134 0 336 3.13401 336 7H350Z" fill="white"/>
<path d="M364 7C364 3.13401 360.866 0 357 0C353.134 0 350 3.13401 350 7H364Z" fill="white"/>
<path d="M378 7C378 3.13401 374.866 0 371 0C367.134 0 364 3.13401 364 7H378Z" fill="white"/>
<path d="M392 7C392 3.13401 388.866 0 385 0C381.134 0 378 3.13401 378 7H392Z" fill="white"/>
<path d="M406 7C406 3.13401 402.866 0 399 0C395.134 0 392 3.13401 392 7H406Z" fill="white"/>
<path d="M420 7C420 3.13401 416.866 0 413 0C409.134 0 406 3.13401 406 7H420Z" fill="white"/>
<path d="M434 7C434 3.13401 430.866 0 427 0C423.134 0 420 3.13401 420 7H434Z" fill="white"/>
<path d="M448 7C448 3.13401 444.866 0 441 0C437.134 0 434 3.13401 434 7H448Z" fill="white"/>
<path d="M462 7C462 3.13401 458.866 0 455 0C451.134 0 448 3.13401 448 7H462Z" fill="white"/>
<path d="M476 7C476 3.13401 472.866 0 469 0C465.134 0 462 3.13401 462 7H476Z" fill="white"/>
<path d="M490 7C490 3.13401 486.866 0 483 0C479.134 0 476 3.13401 476 7H490Z" fill="white"/>
<path d="M504 7C504 3.13401 500.866 0 497 0C493.134 0 490 3.13401 490 7H504Z" fill="white"/>
<path d="M518 7C518 3.13401 514.866 0 511 0C507.134 0 504 3.13401 504 7H518Z" fill="white"/>
<path d="M532 7C532 3.13401 528.866 0 525 0C521.134 0 518 3.13401 518 7H532Z" fill="white"/>
<path d="M546 7C546 3.13401 542.866 0 539 0C535.134 0 532 3.13401 532 7H546Z" fill="white"/>
<path d="M560 7C560 3.13401 556.866 0 553 0C549.134 0 546 3.13401 546 7H560Z" fill="white"/>
<path d="M574 7C574 3.13401 570.866 0 567 0C563.134 0 560 3.13401 560 7H574Z" fill="white"/>
<path d="M588 7C588 3.13401 584.866 0 581 0C577.134 0 574 3.13401 574 7H588Z" fill="white"/>
<path d="M602 7C602 3.13401 598.866 0 595 0C591.134 0 588 3.13401 588 7H602Z" fill="white"/>
<path d="M616 7C616 3.13401 612.866 0 609 0C605.134 0 602 3.13401 602 7H616Z" fill="white"/>
<path d="M630 7C630 3.13401 626.866 0 623 0C619.134 0 616 3.13401 616 7H630Z" fill="white"/>
<path d="M644 7C644 3.13401 640.866 0 637 0C633.134 0 630 3.13401 630 7H644Z" fill="white"/>
<path d="M658 7C658 3.13401 654.866 0 651 0C647.134 0 644 3.13401 644 7H658Z" fill="white"/>
<path d="M672 7C672 3.13401 668.866 0 665 0C661.134 0 658 3.13401 658 7H672Z" fill="white"/>
<path d="M686 7C686 3.13401 682.866 0 679 0C675.134 0 672 3.13401 672 7H686Z" fill="white"/>
<path d="M700 7C700 3.13401 696.866 0 693 0C689.134 0 686 3.13401 686 7H700Z" fill="white"/>
<path d="M714 7C714 3.13401 710.866 0 707 0C703.134 0 700 3.13401 700 7H714Z" fill="white"/>
<path d="M728 7C728 3.13401 724.866 0 721 0C717.134 0 714 3.13401 714 7H728Z" fill="white"/>
<path d="M742 7C742 3.13401 738.866 0 735 0C731.134 0 728 3.13401 728 7H742Z" fill="white"/>
<path d="M756 7C756 3.13401 752.866 0 749 0C745.134 0 742 3.13401 742 7H756Z" fill="white"/>
<path d="M770 7C770 3.13401 766.866 0 763 0C759.134 0 756 3.13401 756 7H770Z" fill="white"/>
<path d="M784 7C784 3.13401 780.866 0 777 0C773.134 0 770 3.13401 770 7H784Z" fill="white"/>
<path d="M798 7C798 3.13401 794.866 0 791 0C787.134 0 784 3.13401 784 7H798Z" fill="white"/>
<path d="M812 7C812 3.13401 808.866 0 805 0C801.134 0 798 3.13401 798 7H812Z" fill="white"/>
<path d="M826 7C826 3.13401 822.866 0 819 0C815.134 0 812 3.13401 812 7H826Z" fill="white"/>
<path d="M840 7C840 3.13401 836.866 0 833 0C829.134 0 826 3.13401 826 7H840Z" fill="white"/>
<path d="M854 7C854 3.13401 850.866 0 847 0C843.134 0 840 3.13401 840 7H854Z" fill="white"/>
<path d="M868 7C868 3.13401 864.866 0 861 0C857.134 0 854 3.13401 854 7H868Z" fill="white"/>
<path d="M882 7C882 3.13401 878.866 0 875 0C871.134 0 868 3.13401 868 7H882Z" fill="white"/>
<path d="M896 7C896 3.13401 892.866 0 889 0C885.134 0 882 3.13401 882 7H896Z" fill="white"/>
<path d="M910 7C910 3.13401 906.866 0 903 0C899.134 0 896 3.13401 896 7H910Z" fill="white"/>
<path d="M924 7C924 3.13401 920.866 0 917 0C913.134 0 910 3.13401 910 7H924Z" fill="white"/>
<path d="M938 7C938 3.13401 934.866 0 931 0C927.134 0 924 3.13401 924 7H938Z" fill="white"/>
<path d="M952 7C952 3.13401 948.866 0 945 0C941.134 0 938 3.13401 938 7H952Z" fill="white"/>
<path d="M966 7C966 3.13401 962.866 0 959 0C955.134 0 952 3.13401 952 7H966Z" fill="white"/>
<path d="M980 7C980 3.13401 976.866 0 973 0C969.134 0 966 3.13401 966 7H980Z" fill="white"/>
<path d="M994 7C994 3.13401 990.866 0 987 0C983.134 0 980 3.13401 980 7H994Z" fill="white"/>
<path d="M1008 7C1008 3.13401 1004.87 0 1001 0C997.134 0 994 3.13401 994 7H1008Z" fill="white"/>
<path d="M1022 7C1022 3.13401 1018.87 0 1015 0C1011.13 0 1008 3.13401 1008 7H1022Z" fill="white"/>
<path d="M1036 7C1036 3.13401 1032.87 0 1029 0C1025.13 0 1022 3.13401 1022 7H1036Z" fill="white"/>
<path d="M1050 7C1050 3.13401 1046.87 0 1043 0C1039.13 0 1036 3.13401 1036 7H1050Z" fill="white"/>
<path d="M1064 7C1064 3.13401 1060.87 0 1057 0C1053.13 0 1050 3.13401 1050 7H1064Z" fill="white"/>
<path d="M1078 7C1078 3.13401 1074.87 0 1071 0C1067.13 0 1064 3.13401 1064 7H1078Z" fill="white"/>
<path d="M1092 7C1092 3.13401 1088.87 0 1085 0C1081.13 0 1078 3.13401 1078 7H1092Z" fill="white"/>
<path d="M1106 7C1106 3.13401 1102.87 0 1099 0C1095.13 0 1092 3.13401 1092 7H1106Z" fill="white"/>
<path d="M1120 7C1120 3.13401 1116.87 0 1113 0C1109.13 0 1106 3.13401 1106 7H1120Z" fill="white"/>
<path d="M1134 7C1134 3.13401 1130.87 0 1127 0C1123.13 0 1120 3.13401 1120 7H1134Z" fill="white"/>
<path d="M1148 7C1148 3.13401 1144.87 0 1141 0C1137.13 0 1134 3.13401 1134 7H1148Z" fill="white"/>
<path d="M1162 7C1162 3.13401 1158.87 0 1155 0C1151.13 0 1148 3.13401 1148 7H1162Z" fill="white"/>
<path d="M1176 7C1176 3.13401 1172.87 0 1169 0C1165.13 0 1162 3.13401 1162 7H1176Z" fill="white"/>
<path d="M1190 7C1190 3.13401 1186.87 0 1183 0C1179.13 0 1176 3.13401 1176 7H1190Z" fill="white"/>
<path d="M1204 7C1204 3.13401 1200.87 0 1197 0C1193.13 0 1190 3.13401 1190 7H1204Z" fill="white"/>
<path d="M1218 7C1218 3.13401 1214.87 0 1211 0C1207.13 0 1204 3.13401 1204 7H1218Z" fill="white"/>
<path d="M1232 7C1232 3.13401 1228.87 0 1225 0C1221.13 0 1218 3.13401 1218 7H1232Z" fill="white"/>
<path d="M1246 7C1246 3.13401 1242.87 0 1239 0C1235.13 0 1232 3.13401 1232 7H1246Z" fill="white"/>
<path d="M1260 7C1260 3.13401 1256.87 0 1253 0C1249.13 0 1246 3.13401 1246 7H1260Z" fill="white"/>
<path d="M1274 7C1274 3.13401 1270.87 0 1267 0C1263.13 0 1260 3.13401 1260 7H1274Z" fill="white"/>
<path d="M1288 7C1288 3.13401 1284.87 0 1281 0C1277.13 0 1274 3.13401 1274 7H1288Z" fill="white"/>
<path d="M1302 7C1302 3.13401 1298.87 0 1295 0C1291.13 0 1288 3.13401 1288 7H1302Z" fill="white"/>
<path d="M1316 7C1316 3.13401 1312.87 0 1309 0C1305.13 0 1302 3.13401 1302 7H1316Z" fill="white"/>
<path d="M1330 7C1330 3.13401 1326.87 0 1323 0C1319.13 0 1316 3.13401 1316 7H1330Z" fill="white"/>
<path d="M1344 7C1344 3.13401 1340.87 0 1337 0C1333.13 0 1330 3.13401 1330 7H1344Z" fill="white"/>
<path d="M1358 7C1358 3.13401 1354.87 0 1351 0C1347.13 0 1344 3.13401 1344 7H1358Z" fill="white"/>
<path d="M1372 7C1372 3.13401 1368.87 0 1365 0C1361.13 0 1358 3.13401 1358 7H1372Z" fill="white"/>
<path d="M1386 7C1386 3.13401 1382.87 0 1379 0C1375.13 0 1372 3.13401 1372 7H1386Z" fill="white"/>
<path d="M1400 7C1400 3.13401 1396.87 0 1393 0C1389.13 0 1386 3.13401 1386 7H1400Z" fill="white"/>
<path d="M1414 7C1414 3.13401 1410.87 0 1407 0C1403.13 0 1400 3.13401 1400 7H1414Z" fill="white"/>
<path d="M1428 7C1428 3.13401 1424.87 0 1421 0C1417.13 0 1414 3.13401 1414 7H1428Z" fill="white"/>
<path d="M1442 7C1442 3.13401 1438.87 0 1435 0C1431.13 0 1428 3.13401 1428 7H1442Z" fill="white"/>
<path d="M1456 7C1456 3.13401 1452.87 0 1449 0C1445.13 0 1442 3.13401 1442 7H1456Z" fill="white"/>
<path d="M1470 7C1470 3.13401 1466.87 0 1463 0C1459.13 0 1456 3.13401 1456 7H1470Z" fill="white"/>
<path d="M1484 7C1484 3.13401 1480.87 0 1477 0C1473.13 0 1470 3.13401 1470 7H1484Z" fill="white"/>
<path d="M1498 7C1498 3.13401 1494.87 0 1491 0C1487.13 0 1484 3.13401 1484 7H1498Z" fill="white"/>
<path d="M1512 7C1512 3.13401 1508.87 0 1505 0C1501.13 0 1498 3.13401 1498 7H1512Z" fill="white"/>
<path d="M1526 7C1526 3.13401 1522.87 0 1519 0C1515.13 0 1512 3.13401 1512 7H1526Z" fill="white"/>
<path d="M1540 7C1540 3.13401 1536.87 0 1533 0C1529.13 0 1526 3.13401 1526 7H1540Z" fill="white"/>
<path d="M1554 7C1554 3.13401 1550.87 0 1547 0C1543.13 0 1540 3.13401 1540 7H1554Z" fill="white"/>
<path d="M1568 7C1568 3.13401 1564.87 0 1561 0C1557.13 0 1554 3.13401 1554 7H1568Z" fill="white"/>
<path d="M1582 7C1582 3.13401 1578.87 0 1575 0C1571.13 0 1568 3.13401 1568 7H1582Z" fill="white"/>
<path d="M1596 7C1596 3.13401 1592.87 0 1589 0C1585.13 0 1582 3.13401 1582 7H1596Z" fill="white"/>
<path d="M1610 7C1610 3.13401 1606.87 0 1603 0C1599.13 0 1596 3.13401 1596 7H1610Z" fill="white"/>
<path d="M1624 7C1624 3.13401 1620.87 0 1617 0C1613.13 0 1610 3.13401 1610 7H1624Z" fill="white"/>
<path d="M1638 7C1638 3.13401 1634.87 0 1631 0C1627.13 0 1624 3.13401 1624 7H1638Z" fill="white"/>
<path d="M1652 7C1652 3.13401 1648.87 0 1645 0C1641.13 0 1638 3.13401 1638 7H1652Z" fill="white"/>
<path d="M1666 7C1666 3.13401 1662.87 0 1659 0C1655.13 0 1652 3.13401 1652 7H1666Z" fill="white"/>
<path d="M1680 7C1680 3.13401 1676.87 0 1673 0C1669.13 0 1666 3.13401 1666 7H1680Z" fill="white"/>
<path d="M1694 7C1694 3.13401 1690.87 0 1687 0C1683.13 0 1680 3.13401 1680 7H1694Z" fill="white"/>
<path d="M1708 7C1708 3.13401 1704.87 0 1701 0C1697.13 0 1694 3.13401 1694 7H1708Z" fill="white"/>
<path d="M1722 7C1722 3.13401 1718.87 0 1715 0C1711.13 0 1708 3.13401 1708 7H1722Z" fill="white"/>
<path d="M1736 7C1736 3.13401 1732.87 0 1729 0C1725.13 0 1722 3.13401 1722 7H1736Z" fill="white"/>
<path d="M1750 7C1750 3.13401 1746.87 0 1743 0C1739.13 0 1736 3.13401 1736 7H1750Z" fill="white"/>
<path d="M1764 7C1764 3.13401 1760.87 0 1757 0C1753.13 0 1750 3.13401 1750 7H1764Z" fill="white"/>
<path d="M1778 7C1778 3.13401 1774.87 0 1771 0C1767.13 0 1764 3.13401 1764 7H1778Z" fill="white"/>
<path d="M1792 7C1792 3.13401 1788.87 0 1785 0C1781.13 0 1778 3.13401 1778 7H1792Z" fill="white"/>
<path d="M1806 7C1806 3.13401 1802.87 0 1799 0C1795.13 0 1792 3.13401 1792 7H1806Z" fill="white"/>
<path d="M1820 7C1820 3.13401 1816.87 0 1813 0C1809.13 0 1806 3.13401 1806 7H1820Z" fill="white"/>
<path d="M1834 7C1834 3.13401 1830.87 0 1827 0C1823.13 0 1820 3.13401 1820 7H1834Z" fill="white"/>
<path d="M1848 7C1848 3.13401 1844.87 0 1841 0C1837.13 0 1834 3.13401 1834 7H1848Z" fill="white"/>
<path d="M1862 7C1862 3.13401 1858.87 0 1855 0C1851.13 0 1848 3.13401 1848 7H1862Z" fill="white"/>
<path d="M1876 7C1876 3.13401 1872.87 0 1869 0C1865.13 0 1862 3.13401 1862 7H1876Z" fill="white"/>
<path d="M1891 7C1891 3.13401 1887.87 0 1884 0C1880.13 0 1877 3.13401 1877 7H1891Z" fill="white"/>
<path d="M1906 7C1906 3.13401 1902.87 0 1899 0C1895.13 0 1892 3.13401 1892 7H1906Z" fill="white"/>
<path d="M1920 7C1920 3.13401 1916.87 0 1913 0C1909.13 0 1906 3.13401 1906 7H1920Z" fill="white"/>
</svg>
