<svg width="482" height="127" viewBox="0 0 482 127" fill="none" xmlns="http://www.w3.org/2000/svg">
<path opacity="0.6" d="M16.166 2.9082C16.3569 2.89747 16.5492 2.89096 16.7422 2.8877L17.3252 2.88867L18.832 2.92285L18.8887 0.423828V0.422852L21.9043 0.490234V0.491211L21.8486 2.99023L24.8643 3.05859L24.9189 0.558594L27.9355 0.625977L27.8799 3.12598L30.8955 3.19336L30.9521 0.694336V0.693359L33.9678 0.760742V0.761719L33.9121 3.26074L36.9277 3.3291L36.9824 0.829102L39.999 0.896484L39.9434 3.39648L42.96 3.46387L43.0156 0.964844V0.963867L46.0312 1.03125V1.03223L45.9756 3.53125L48.9912 3.59961L49.0469 1.09961L52.0635 1.16699V1.16797L52.0068 3.66699L55.0234 3.73438L55.0791 1.23535V1.23438L58.0947 1.30176V1.30273L58.0391 3.80176L61.0547 3.87012L61.1104 1.37012L64.127 1.4375V1.43848L64.0713 3.9375L67.0869 4.00488L67.1426 1.50586V1.50488L70.1592 1.57227V1.57324L70.1025 4.07227L73.1182 4.14062L73.1738 1.64062L76.1904 1.70801V1.70898L76.1348 4.20801L79.1504 4.27539L79.2061 1.77637V1.77539L82.2227 1.84277V1.84375L82.166 4.34277L85.1826 4.41113L85.2373 1.91113L88.2539 1.97852V1.97949L88.1982 4.47852L91.2139 4.5459L91.2705 2.04688V2.0459L94.2861 2.11328V2.11426L94.2295 4.61328L97.2461 4.68164L97.3008 2.18164L100.317 2.24902V2.25L100.262 4.74902L103.277 4.81641L103.334 2.31738V2.31641L106.35 2.38379V2.38477L106.294 4.88379L109.31 4.95215L109.364 2.45215L112.382 2.51953V2.52051L112.325 5.01953L115.341 5.08691L115.397 2.58789V2.58691L118.413 2.6543V2.65527L118.357 5.1543L121.373 5.22266L121.428 2.72266L124.445 2.79004V2.79102L124.389 5.29004L127.405 5.35742L127.461 2.8584V2.85742L130.477 2.9248V2.92578L130.421 5.4248L133.437 5.49316L133.492 2.99316L136.509 3.06055V3.06152L136.452 5.56055L139.469 5.62793L139.524 3.12891V3.12793L142.54 3.19531V3.19629L142.484 5.69531L145.5 5.76367L145.556 3.26367L148.572 3.33105V3.33203L148.517 5.83105L151.532 5.89844L151.588 3.39941V3.39844L154.604 3.46582V3.4668L154.548 5.96582L157.563 6.03418L157.619 3.53418L160.636 3.60156V3.60254L160.58 6.10156L163.596 6.16895L163.651 3.66992V3.66895L166.668 3.73633V3.7373L166.611 6.23633L169.628 6.30469L169.683 3.80469L172.699 3.87207V3.87305L172.644 6.37207L175.659 6.43945L175.716 3.94043V3.93945L178.731 4.00684V4.00781L178.676 6.50684L181.691 6.5752L181.746 4.0752L184.763 4.14258V4.14355L184.707 6.64258L187.723 6.70996L187.779 4.21094V4.20996L190.795 4.27734V4.27832L190.739 6.77734L193.755 6.8457L193.81 4.3457L196.827 4.41309V4.41406L196.771 6.91309L199.787 6.98047L199.843 4.48145V4.48047L202.858 4.54785V4.54883L202.803 7.04785L205.818 7.11621L205.873 4.61621L208.891 4.68359V4.68457L208.834 7.18359L211.851 7.25098L211.906 4.75195V4.75098L214.922 4.81836V4.81934L214.866 7.31934L217.882 7.38672L217.938 4.88672L220.954 4.9541V4.95508L220.897 7.4541L223.914 7.52148L223.97 5.02246V5.02148L226.985 5.08887V5.08984L226.93 7.58984L229.945 7.65723L230.001 5.15723L233.018 5.22461V5.22559L232.962 7.72461L235.978 7.79199L236.033 5.29297V5.29199L239.05 5.35938V5.36035L238.993 7.86035L242.01 7.92773L242.064 5.42773L245.081 5.49512V5.49609L245.025 7.99512L248.041 8.0625L248.097 5.56348V5.5625L251.113 5.62988V5.63086L251.057 8.13086L254.073 8.19824L254.128 5.69824L257.145 5.76562V5.7666L257.089 8.26562L260.104 8.33301L260.161 5.83398V5.83301L263.177 5.90039V5.90137L263.121 8.40137L266.137 8.46875L266.191 5.96875L269.208 6.03613V6.03711L269.152 8.53613L272.168 8.60352L272.225 6.10449V6.10352L275.24 6.1709V6.17188L275.185 8.67188L278.2 8.73926L278.255 6.23926L281.272 6.30664V6.30762L281.216 8.80664L284.232 8.87402L284.288 6.375V6.37402L287.304 6.44141V6.44238L287.248 8.94238L290.264 9.00977L290.318 6.50977L293.336 6.57715V6.57812L293.279 9.07715L296.296 9.14453L296.352 6.64551V6.64453L299.367 6.71191V6.71289L299.312 9.21289L302.327 9.28027L302.383 6.78027L305.399 6.84766V6.84863L305.344 9.34766L308.359 9.41504L308.415 6.91602V6.91504L311.431 6.98242V6.9834L311.375 9.4834L314.391 9.55078L314.446 7.05078L317.463 7.11816V7.11914L317.407 9.61816L320.423 9.68555L320.479 7.18652V7.18555L323.495 7.25293V7.25391L323.438 9.75391L326.455 9.82129L326.51 7.32129L329.526 7.38867V7.38965L329.471 9.88867L332.486 9.95605L332.542 7.45703V7.45605L335.559 7.52344V7.52441L335.502 10.0244L338.519 10.0918L338.574 7.59277V7.5918L341.59 7.65918V7.66016L341.534 10.1592L344.55 10.2266L344.606 7.72754V7.72656L347.622 7.79395V7.79492L347.565 10.2949L350.582 10.3623L350.638 7.86328V7.8623L353.653 7.92969V7.93066L353.598 10.4297L356.613 10.4971L356.67 7.99805V7.99707L359.686 8.06445V8.06543L359.63 10.5654L362.646 10.6328L362.701 8.13379V8.13281L365.718 8.2002V8.20117L365.661 10.7002L368.677 10.7676L368.733 8.26855V8.26758L371.749 8.33496V8.33594L371.693 10.8359L374.709 10.9033L374.765 8.4043V8.40332L377.781 8.4707V8.47168L377.725 10.9707L380.741 11.0381L380.797 8.53906V8.53809L383.812 8.60547V8.60645L383.757 11.1064L386.772 11.1738L386.829 8.6748V8.67383L389.845 8.74121V8.74219L389.788 11.2412L392.805 11.3086L392.86 8.80957V8.80859L395.876 8.87598V8.87695L395.82 11.377L398.836 11.4443L398.893 8.94531V8.94434L401.908 9.01172V9.0127L401.853 11.5117L404.868 11.5791L404.924 9.08008V9.0791L407.939 9.14648V9.14746L407.884 11.6475L410.899 11.7148L410.956 9.21582V9.21484L413.972 9.28223V9.2832L413.916 11.7822L416.932 11.8496L416.987 9.35059V9.34961L420.004 9.41699V9.41797L419.947 11.918L422.963 11.9854L423.02 9.48633V9.48535L426.035 9.55273V9.55371L425.979 12.0527L428.995 12.1201L429.051 9.62109V9.62012L432.067 9.6875V9.68848L432.011 12.1885L435.027 12.2559L435.083 9.75684V9.75586L438.099 9.82324V9.82422L438.043 12.3232L441.059 12.3906L441.115 9.8916V9.89062L444.131 9.95801V9.95898L444.074 12.459L447.091 12.5264L447.146 10.0273V10.0264L450.162 10.0938V10.0947L450.106 12.5938L453.122 12.6611L453.179 10.1621V10.1611L456.194 10.2285V10.2295L456.139 12.7295L459.154 12.7969L459.21 10.2979V10.2969L462.226 10.3643V10.3652L462.17 12.8643L463.678 12.8984C464.081 12.9075 464.479 12.933 464.871 12.9736L465.128 10.4863C466.068 10.5838 466.984 10.7588 467.87 11.002L467.209 13.4111C467.981 13.6231 468.727 13.8973 469.44 14.2275L470.489 11.96C471.339 12.3535 472.151 12.814 472.916 13.3359L471.508 15.4014C472.166 15.8502 472.785 16.3524 473.359 16.9004L475.085 15.0928C475.758 15.7358 476.378 16.4329 476.938 17.1768L474.942 18.6807C475.42 19.3145 475.846 19.9875 476.215 20.6934L478.43 19.5352C478.859 20.3561 479.222 21.2154 479.514 22.1055L477.14 22.8838C477.384 23.6307 477.57 24.4034 477.69 25.1953L480.16 24.8193C480.298 25.7274 480.365 26.6572 480.353 27.6025L477.853 27.5684C477.85 27.7654 477.844 27.9633 477.833 28.1621L477.788 28.7617L477.651 30.2021L480.141 30.4385L479.867 33.3184L477.379 33.084L477.106 35.9648L479.595 36.2002L479.321 39.0801L476.833 38.8457L476.561 41.7266L479.049 41.9629L478.775 44.8428L476.287 44.6074L476.015 47.4893L478.503 47.7246L478.23 50.6055L475.741 50.3701L475.469 53.251L477.957 53.4863L477.685 56.3682L475.195 56.1318L474.923 59.0137L477.411 59.248L477.139 62.1299L474.65 61.8945L474.377 64.7754L476.865 65.0107L476.593 67.8926L474.104 67.6562L473.831 70.5381L476.319 70.7725L476.047 73.6543L473.559 73.4189L473.285 76.2998L475.773 76.5342L475.501 79.416L473.013 79.1807L472.74 82.0625L475.228 82.2969L474.955 85.1777L472.467 84.9434L472.194 87.8242L474.683 88.0596L474.409 90.9404L471.921 90.7051L471.648 93.5859L474.137 93.8223L473.863 96.7021L471.375 96.4678L471.103 99.3486L473.591 99.584L473.317 102.465L470.829 102.229L470.557 105.11L473.045 105.346L472.771 108.227L470.284 107.992L470.147 109.433C470.105 109.881 470.042 110.322 469.961 110.756L472.417 111.216C472.222 112.255 471.933 113.259 471.561 114.22L469.23 113.316C468.906 114.152 468.507 114.949 468.042 115.699L470.166 117.016C469.614 117.906 468.984 118.74 468.283 119.509L466.436 117.825C465.836 118.484 465.176 119.086 464.467 119.624L465.977 121.615C465.148 122.244 464.26 122.797 463.324 123.267L462.204 121.033C461.415 121.429 460.586 121.754 459.725 122.002L460.414 124.403C459.424 124.688 458.398 124.886 457.345 124.986L457.108 122.498C456.779 122.53 456.446 122.55 456.11 122.56L455.773 122.564L454.271 122.571L454.281 125.07L451.276 125.083L451.267 122.584L448.262 122.597L448.271 125.096L445.267 125.108L445.257 122.609L442.252 122.622L442.262 125.121L439.257 125.134L439.247 122.635L436.242 122.647L436.252 125.146L433.248 125.16L433.237 122.66L430.232 122.674L430.243 125.173L427.237 125.186L427.228 122.687L424.223 122.699L424.232 125.198L421.228 125.211L421.218 122.712L418.213 122.725L418.223 125.224L415.218 125.236L415.208 122.737L412.203 122.75L412.213 125.249L409.208 125.262L409.198 122.763L406.193 122.775L406.203 125.274L403.198 125.287L403.188 122.788L400.184 122.801L400.193 125.3L397.188 125.312L397.179 122.813L394.174 122.826L394.184 125.325L391.179 125.338L391.169 122.839L388.164 122.852L388.175 125.352L385.17 125.364L385.159 122.864L382.154 122.878L382.164 125.377L379.159 125.39L379.149 122.891L376.145 122.903L376.154 125.402L373.149 125.415L373.14 122.916L370.135 122.929L370.145 125.428L367.14 125.44L367.13 122.941L364.125 122.954L364.135 125.453L361.13 125.466L361.12 122.967L358.115 122.979L358.125 125.479L355.12 125.491L355.11 122.992L352.105 123.005L352.115 125.504L349.11 125.517L349.101 123.018L346.096 123.03L346.105 125.529L343.102 125.543L343.091 123.043L340.086 123.056L340.097 125.556L337.092 125.568L337.081 123.068L334.076 123.082L334.086 125.581L331.081 125.594L331.071 123.095L328.066 123.107L328.076 125.606L325.071 125.619L325.062 123.12L322.057 123.133L322.066 125.632L319.062 125.645L319.052 123.146L316.047 123.158L316.057 125.657L313.052 125.67L313.042 123.171L310.037 123.184L310.047 125.683L307.042 125.695L307.032 123.196L304.027 123.209L304.037 125.708L301.033 125.722L301.022 123.222L298.018 123.234L298.028 125.734L295.023 125.747L295.013 123.247L292.008 123.26L292.019 125.76L289.014 125.772L289.003 123.273L285.998 123.286L286.008 125.785L283.003 125.798L282.993 123.299L279.988 123.312L279.998 125.811L276.993 125.823L276.983 123.324L273.979 123.337L273.988 125.836L270.983 125.849L270.974 123.35L267.969 123.362L267.979 125.861L264.974 125.874L264.964 123.375L261.959 123.388L261.969 125.887L258.964 125.899L258.954 123.4L255.949 123.413L255.96 125.913L252.955 125.926L252.944 123.426L249.939 123.438L249.95 125.938L246.945 125.951L246.935 123.451L243.93 123.464L243.94 125.964L240.935 125.977L240.925 123.478L237.92 123.49L237.93 125.989L234.925 126.002L234.915 123.503L231.91 123.516L231.92 126.015L228.915 126.027L228.905 123.528L225.9 123.541L225.91 126.04L222.905 126.053L222.896 123.554L219.891 123.566L219.9 126.065L216.896 126.078L216.886 123.579L213.881 123.592L213.892 126.092L210.887 126.104L210.876 123.604L207.871 123.617L207.882 126.117L204.877 126.13L204.866 123.63L201.861 123.643L201.872 126.143L198.867 126.155L198.856 123.655L195.852 123.668L195.862 126.168L192.856 126.181L192.847 123.682L189.842 123.694L189.852 126.193L186.847 126.206L186.837 123.707L183.832 123.72L183.842 126.219L180.837 126.231L180.827 123.732L177.822 123.745L177.832 126.244L174.827 126.257L174.817 123.758L171.812 123.771L171.822 126.27L168.818 126.283L168.808 123.783L165.803 123.796L165.813 126.296L162.809 126.309L162.798 123.809L159.793 123.821L159.804 126.321L156.799 126.334L156.788 123.834L153.783 123.847L153.794 126.347L150.789 126.359L150.778 123.859L147.773 123.873L147.784 126.372L144.778 126.385L144.769 123.886L141.764 123.898L141.773 126.397L138.769 126.41L138.759 123.911L135.754 123.924L135.764 126.423L132.759 126.436L132.749 123.937L129.744 123.949L129.754 126.448L126.75 126.462L126.739 123.962L123.734 123.975L123.745 126.475L120.74 126.487L120.729 123.987L117.725 124L117.735 126.5L114.73 126.513L114.72 124.013L111.715 124.025L111.726 126.525L108.721 126.538L108.71 124.038L105.705 124.051L105.716 126.551L102.711 126.563L102.7 124.063L99.6953 124.077L99.7051 126.576L96.7002 126.589L96.6904 124.09L93.6855 124.103L93.6953 126.602L90.6904 126.614L90.6807 124.115L87.6758 124.128L87.6855 126.627L84.6807 126.64L84.6709 124.141L81.666 124.153L81.6768 126.653L78.6719 126.666L78.6611 124.166L75.6562 124.179L75.667 126.679L72.6621 126.691L72.6514 124.191L69.6465 124.204L69.6572 126.704L66.6523 126.717L66.6416 124.217L63.6367 124.229L63.6475 126.729L60.6426 126.742L60.6318 124.242L57.627 124.255L57.6377 126.755L54.6328 126.768L54.6221 124.268L51.6172 124.281L51.627 126.78L48.6221 126.793L48.6123 124.294L45.6074 124.307L45.6172 126.806L42.6123 126.818L42.6025 124.319L39.5977 124.332L39.6074 126.831L36.6035 126.845L36.5928 124.345L33.5879 124.357L33.5986 126.857L30.5938 126.87L30.583 124.37L27.5791 124.383L27.5889 126.883L24.584 126.896L24.5742 124.396L21.5693 124.408L21.5791 126.908L18.5742 126.921L18.5645 124.421L17.0615 124.428L16.7002 124.425C16.3407 124.418 15.9847 124.397 15.6328 124.364L15.4004 126.853C14.2709 126.747 13.1737 126.53 12.1191 126.215L12.8359 123.821C11.917 123.546 11.0354 123.182 10.2021 122.739L9.02832 124.945C8.03875 124.419 7.10723 123.798 6.24609 123.094L7.8291 121.159C7.09123 120.556 6.41309 119.882 5.80664 119.146L3.87793 120.736C3.17021 119.878 2.54513 118.949 2.01465 117.962L4.2168 116.779C3.77008 115.948 3.40289 115.068 3.12402 114.15L0.732422 114.876C0.412498 113.823 0.191113 112.727 0.0810547 111.598L2.56934 111.356C2.53501 111.005 2.51267 110.649 2.50391 110.289L2.5 109.928V108.386H0V105.301H2.5V102.216H0V99.1309H2.5V96.0459H0V92.9619H2.5V89.877H0V86.792H2.5V83.707H0V80.623H2.5V77.5381H0V74.4531H2.5V71.3682H0V68.2842H2.5V65.1992H0V62.1143H2.5V59.0293H0V55.9443H2.5V52.8604H0V49.7754H2.5V46.6904H0V43.6055H2.5V40.5215H0V37.4365H2.5V34.3516H0V31.2666H2.5V28.1816H0V25.0977H2.5V22.0127H0V18.9277H2.5V17.3857C2.5 16.9954 2.51489 16.609 2.54492 16.2275L0.0527344 16.0312C0.124633 15.1182 0.269178 14.2257 0.479492 13.3594L2.9082 13.9492C3.09135 13.1948 3.3338 12.4636 3.62988 11.7607L1.32715 10.79C1.66945 9.97758 2.07221 9.1971 2.53125 8.45508L2.57324 8.38867L4.69238 9.71387C5.10177 9.05889 5.56247 8.43817 6.06836 7.8584L4.18457 6.21484C4.77837 5.53431 5.42548 4.90166 6.11914 4.32324L7.7207 6.24316C8.31159 5.75048 8.94157 5.30374 9.60547 4.90918L8.32812 2.76074C9.10082 2.3015 9.91294 1.9022 10.7578 1.56836L11.6768 3.89258C12.3859 3.61238 13.1226 3.38686 13.8809 3.2207L13.3457 0.779297C14.2165 0.588475 15.1119 0.463502 16.0264 0.412109L16.166 2.9082Z" fill="white" stroke="#70167E" stroke-width="5" stroke-dasharray="3 3"/>
<path d="M5 20.2959C5 12.4493 11.4479 6.13486 19.2928 6.29895L461.832 15.5551C470.005 15.726 476.293 22.8336 475.467 30.9664L467.681 107.637C466.958 114.764 460.971 120.194 453.808 120.223L19.0554 121.944C11.3018 121.975 5 115.698 5 107.944V20.2959Z" fill="white"/>
</svg>
