<svg width="1928" height="33" viewBox="0 0 1928 33" fill="none" xmlns="http://www.w3.org/2000/svg">
<g filter="url(#filter0_d_2281_3)">
<path fill-rule="evenodd" clip-rule="evenodd" d="M4 5C4 8.86599 7.13401 12 11 12C14.866 12 18 8.86599 18 5H4Z" fill="#70167E"/>
<path fill-rule="evenodd" clip-rule="evenodd" d="M18 5C18 8.86599 21.134 12 25 12C28.866 12 32 8.86599 32 5H18Z" fill="#70167E"/>
<path fill-rule="evenodd" clip-rule="evenodd" d="M32 5C32 8.86599 35.134 12 39 12C42.866 12 46 8.86599 46 5H32Z" fill="#70167E"/>
<path fill-rule="evenodd" clip-rule="evenodd" d="M46 5C46 8.86599 49.134 12 53 12C56.866 12 60 8.86599 60 5H46Z" fill="#70167E"/>
<path fill-rule="evenodd" clip-rule="evenodd" d="M60 5C60 8.86599 63.134 12 67 12C70.866 12 74 8.86599 74 5H60Z" fill="#70167E"/>
<path fill-rule="evenodd" clip-rule="evenodd" d="M74 5C74 8.86599 77.134 12 81 12C84.866 12 88 8.86599 88 5H74Z" fill="#70167E"/>
<path fill-rule="evenodd" clip-rule="evenodd" d="M88 5C88 8.86599 91.134 12 95 12C98.866 12 102 8.86599 102 5H88Z" fill="#70167E"/>
<path fill-rule="evenodd" clip-rule="evenodd" d="M102 5C102 8.86599 105.134 12 109 12C112.866 12 116 8.86599 116 5H102Z" fill="#70167E"/>
<path fill-rule="evenodd" clip-rule="evenodd" d="M116 5C116 8.86599 119.134 12 123 12C126.866 12 130 8.86599 130 5H116Z" fill="#70167E"/>
<path fill-rule="evenodd" clip-rule="evenodd" d="M130 5C130 8.86599 133.134 12 137 12C140.866 12 144 8.86599 144 5H130Z" fill="#70167E"/>
<path fill-rule="evenodd" clip-rule="evenodd" d="M144 5C144 8.86599 147.134 12 151 12C154.866 12 158 8.86599 158 5H144Z" fill="#70167E"/>
<path fill-rule="evenodd" clip-rule="evenodd" d="M158 5C158 8.86599 161.134 12 165 12C168.866 12 172 8.86599 172 5H158Z" fill="#70167E"/>
<path fill-rule="evenodd" clip-rule="evenodd" d="M172 5C172 8.86599 175.134 12 179 12C182.866 12 186 8.86599 186 5H172Z" fill="#70167E"/>
<path fill-rule="evenodd" clip-rule="evenodd" d="M186 5C186 8.86599 189.134 12 193 12C196.866 12 200 8.86599 200 5H186Z" fill="#70167E"/>
<path fill-rule="evenodd" clip-rule="evenodd" d="M200 5C200 8.86599 203.134 12 207 12C210.866 12 214 8.86599 214 5H200Z" fill="#70167E"/>
<path fill-rule="evenodd" clip-rule="evenodd" d="M214 5C214 8.86599 217.134 12 221 12C224.866 12 228 8.86599 228 5H214Z" fill="#70167E"/>
<path fill-rule="evenodd" clip-rule="evenodd" d="M228 5C228 8.86599 231.134 12 235 12C238.866 12 242 8.86599 242 5H228Z" fill="#70167E"/>
<path fill-rule="evenodd" clip-rule="evenodd" d="M242 5C242 8.86599 245.134 12 249 12C252.866 12 256 8.86599 256 5H242Z" fill="#70167E"/>
<path fill-rule="evenodd" clip-rule="evenodd" d="M266 5C266 16.0457 274.954 25 286 25C297.046 25 306 16.0457 306 5H266Z" fill="#70167E"/>
<path fill-rule="evenodd" clip-rule="evenodd" d="M296.2 5C296.069 5.64622 296 6.31507 296 7C296 12.5228 300.477 17 306 17C311.523 17 316 12.5228 316 7C316 6.31507 315.931 5.64622 315.8 5H296.2Z" fill="#70167E"/>
<path fill-rule="evenodd" clip-rule="evenodd" d="M255.2 5C255.069 5.64622 255 6.31507 255 7C255 12.5228 259.477 17 265 17C270.523 17 275 12.5228 275 7C275 6.31507 274.931 5.64622 274.8 5H255.2Z" fill="#70167E"/>
<path fill-rule="evenodd" clip-rule="evenodd" d="M298 5C298 8.86599 301.134 12 305 12C308.866 12 312 8.86599 312 5H298Z" fill="#70167E"/>
<path fill-rule="evenodd" clip-rule="evenodd" d="M312 5C312 8.86599 315.134 12 319 12C322.866 12 326 8.86599 326 5H312Z" fill="#70167E"/>
<path fill-rule="evenodd" clip-rule="evenodd" d="M326 5C326 8.86599 329.134 12 333 12C336.866 12 340 8.86599 340 5H326Z" fill="#70167E"/>
<path fill-rule="evenodd" clip-rule="evenodd" d="M340 5C340 8.86599 343.134 12 347 12C350.866 12 354 8.86599 354 5H340Z" fill="#70167E"/>
<path fill-rule="evenodd" clip-rule="evenodd" d="M354 5C354 8.86599 357.134 12 361 12C364.866 12 368 8.86599 368 5H354Z" fill="#70167E"/>
<path fill-rule="evenodd" clip-rule="evenodd" d="M368 5C368 8.86599 371.134 12 375 12C378.866 12 382 8.86599 382 5H368Z" fill="#70167E"/>
<path fill-rule="evenodd" clip-rule="evenodd" d="M382 5C382 8.86599 385.134 12 389 12C392.866 12 396 8.86599 396 5H382Z" fill="#70167E"/>
<path fill-rule="evenodd" clip-rule="evenodd" d="M396 5C396 8.86599 399.134 12 403 12C406.866 12 410 8.86599 410 5H396Z" fill="#70167E"/>
<path fill-rule="evenodd" clip-rule="evenodd" d="M410 5C410 8.86599 413.134 12 417 12C420.866 12 424 8.86599 424 5H410Z" fill="#70167E"/>
<path fill-rule="evenodd" clip-rule="evenodd" d="M424 5C424 8.86599 427.134 12 431 12C434.866 12 438 8.86599 438 5H424Z" fill="#70167E"/>
<path fill-rule="evenodd" clip-rule="evenodd" d="M438 5C438 8.86599 441.134 12 445 12C448.866 12 452 8.86599 452 5H438Z" fill="#70167E"/>
<path fill-rule="evenodd" clip-rule="evenodd" d="M452 5C452 8.86599 455.134 12 459 12C462.866 12 466 8.86599 466 5H452Z" fill="#70167E"/>
<path fill-rule="evenodd" clip-rule="evenodd" d="M466 5C466 8.86599 469.134 12 473 12C476.866 12 480 8.86599 480 5H466Z" fill="#70167E"/>
<path fill-rule="evenodd" clip-rule="evenodd" d="M480 5C480 8.86599 483.134 12 487 12C490.866 12 494 8.86599 494 5H480Z" fill="#70167E"/>
<path fill-rule="evenodd" clip-rule="evenodd" d="M494 5C494 8.86599 497.134 12 501 12C504.866 12 508 8.86599 508 5H494Z" fill="#70167E"/>
<path fill-rule="evenodd" clip-rule="evenodd" d="M508 5C508 8.86599 511.134 12 515 12C518.866 12 522 8.86599 522 5H508Z" fill="#70167E"/>
<path fill-rule="evenodd" clip-rule="evenodd" d="M522 5C522 8.86599 525.134 12 529 12C532.866 12 536 8.86599 536 5H522Z" fill="#70167E"/>
<path fill-rule="evenodd" clip-rule="evenodd" d="M536 5C536 8.86599 539.134 12 543 12C546.866 12 550 8.86599 550 5H536Z" fill="#70167E"/>
<path fill-rule="evenodd" clip-rule="evenodd" d="M550 5C550 8.86599 553.134 12 557 12C560.866 12 564 8.86599 564 5H550Z" fill="#70167E"/>
<path fill-rule="evenodd" clip-rule="evenodd" d="M564 5C564 8.86599 567.134 12 571 12C574.866 12 578 8.86599 578 5H564Z" fill="#70167E"/>
<path fill-rule="evenodd" clip-rule="evenodd" d="M578 5C578 8.86599 581.134 12 585 12C588.866 12 592 8.86599 592 5H578Z" fill="#70167E"/>
<path fill-rule="evenodd" clip-rule="evenodd" d="M592 5C592 8.86599 595.134 12 599 12C602.866 12 606 8.86599 606 5H592Z" fill="#70167E"/>
<path fill-rule="evenodd" clip-rule="evenodd" d="M606 5C606 8.86599 609.134 12 613 12C616.866 12 620 8.86599 620 5H606Z" fill="#70167E"/>
<path fill-rule="evenodd" clip-rule="evenodd" d="M620 5C620 8.86599 623.134 12 627 12C630.866 12 634 8.86599 634 5H620Z" fill="#70167E"/>
<path fill-rule="evenodd" clip-rule="evenodd" d="M634 5C634 8.86599 637.134 12 641 12C644.866 12 648 8.86599 648 5H634Z" fill="#70167E"/>
<path fill-rule="evenodd" clip-rule="evenodd" d="M648 5C648 8.86599 651.134 12 655 12C658.866 12 662 8.86599 662 5H648Z" fill="#70167E"/>
<path fill-rule="evenodd" clip-rule="evenodd" d="M662 5C662 8.86599 665.134 12 669 12C672.866 12 676 8.86599 676 5H662Z" fill="#70167E"/>
<path fill-rule="evenodd" clip-rule="evenodd" d="M676 5C676 8.86599 679.134 12 683 12C686.866 12 690 8.86599 690 5H676Z" fill="#70167E"/>
<path fill-rule="evenodd" clip-rule="evenodd" d="M690 5C690 8.86599 693.134 12 697 12C700.866 12 704 8.86599 704 5H690Z" fill="#70167E"/>
<path fill-rule="evenodd" clip-rule="evenodd" d="M704 5C704 8.86599 707.134 12 711 12C714.866 12 718 8.86599 718 5H704Z" fill="#70167E"/>
<path fill-rule="evenodd" clip-rule="evenodd" d="M718 5C718 8.86599 721.134 12 725 12C728.866 12 732 8.86599 732 5H718Z" fill="#70167E"/>
<path fill-rule="evenodd" clip-rule="evenodd" d="M732 5C732 8.86599 735.134 12 739 12C742.866 12 746 8.86599 746 5H732Z" fill="#70167E"/>
<path fill-rule="evenodd" clip-rule="evenodd" d="M746 5C746 8.86599 749.134 12 753 12C756.866 12 760 8.86599 760 5H746Z" fill="#70167E"/>
<path fill-rule="evenodd" clip-rule="evenodd" d="M760 5C760 8.86599 763.134 12 767 12C770.866 12 774 8.86599 774 5H760Z" fill="#70167E"/>
<path fill-rule="evenodd" clip-rule="evenodd" d="M774 5C774 8.86599 777.134 12 781 12C784.866 12 788 8.86599 788 5H774Z" fill="#70167E"/>
<path fill-rule="evenodd" clip-rule="evenodd" d="M788 5C788 8.86599 791.134 12 795 12C798.866 12 802 8.86599 802 5H788Z" fill="#70167E"/>
<path fill-rule="evenodd" clip-rule="evenodd" d="M802 5C802 8.86599 805.134 12 809 12C812.866 12 816 8.86599 816 5H802Z" fill="#70167E"/>
<path fill-rule="evenodd" clip-rule="evenodd" d="M816 5C816 8.86599 819.134 12 823 12C826.866 12 830 8.86599 830 5H816Z" fill="#70167E"/>
<path fill-rule="evenodd" clip-rule="evenodd" d="M830 5C830 8.86599 833.134 12 837 12C840.866 12 844 8.86599 844 5H830Z" fill="#70167E"/>
<path fill-rule="evenodd" clip-rule="evenodd" d="M844 5C844 8.86599 847.134 12 851 12C854.866 12 858 8.86599 858 5H844Z" fill="#70167E"/>
<path fill-rule="evenodd" clip-rule="evenodd" d="M858 5C858 8.86599 861.134 12 865 12C868.866 12 872 8.86599 872 5H858Z" fill="#70167E"/>
<path fill-rule="evenodd" clip-rule="evenodd" d="M872 5C872 8.86599 875.134 12 879 12C882.866 12 886 8.86599 886 5H872Z" fill="#70167E"/>
<path fill-rule="evenodd" clip-rule="evenodd" d="M886 5C886 8.86599 889.134 12 893 12C896.866 12 900 8.86599 900 5H886Z" fill="#70167E"/>
<path fill-rule="evenodd" clip-rule="evenodd" d="M900 5C900 8.86599 903.134 12 907 12C910.866 12 914 8.86599 914 5H900Z" fill="#70167E"/>
<path fill-rule="evenodd" clip-rule="evenodd" d="M914 5C914 8.86599 917.134 12 921 12C924.866 12 928 8.86599 928 5H914Z" fill="#70167E"/>
<path fill-rule="evenodd" clip-rule="evenodd" d="M928 5C928 8.86599 931.134 12 935 12C938.866 12 942 8.86599 942 5H928Z" fill="#70167E"/>
<path fill-rule="evenodd" clip-rule="evenodd" d="M942 5C942 8.86599 945.134 12 949 12C952.866 12 956 8.86599 956 5H942Z" fill="#70167E"/>
<path fill-rule="evenodd" clip-rule="evenodd" d="M956 5C956 8.86599 959.134 12 963 12C966.866 12 970 8.86599 970 5H956Z" fill="#70167E"/>
<path fill-rule="evenodd" clip-rule="evenodd" d="M970 5C970 8.86599 973.134 12 977 12C980.866 12 984 8.86599 984 5H970Z" fill="#70167E"/>
<path fill-rule="evenodd" clip-rule="evenodd" d="M984 5C984 8.86599 987.134 12 991 12C994.866 12 998 8.86599 998 5H984Z" fill="#70167E"/>
<path fill-rule="evenodd" clip-rule="evenodd" d="M998 5C998 8.86599 1001.13 12 1005 12C1008.87 12 1012 8.86599 1012 5H998Z" fill="#70167E"/>
<path fill-rule="evenodd" clip-rule="evenodd" d="M1012 5C1012 8.86599 1015.13 12 1019 12C1022.87 12 1026 8.86599 1026 5H1012Z" fill="#70167E"/>
<path fill-rule="evenodd" clip-rule="evenodd" d="M1026 5C1026 8.86599 1029.13 12 1033 12C1036.87 12 1040 8.86599 1040 5H1026Z" fill="#70167E"/>
<path fill-rule="evenodd" clip-rule="evenodd" d="M1040 5C1040 8.86599 1043.13 12 1047 12C1050.87 12 1054 8.86599 1054 5H1040Z" fill="#70167E"/>
<path fill-rule="evenodd" clip-rule="evenodd" d="M1054 5C1054 8.86599 1057.13 12 1061 12C1064.87 12 1068 8.86599 1068 5H1054Z" fill="#70167E"/>
<path fill-rule="evenodd" clip-rule="evenodd" d="M1068 5C1068 8.86599 1071.13 12 1075 12C1078.87 12 1082 8.86599 1082 5H1068Z" fill="#70167E"/>
<path fill-rule="evenodd" clip-rule="evenodd" d="M1082 5C1082 8.86599 1085.13 12 1089 12C1092.87 12 1096 8.86599 1096 5H1082Z" fill="#70167E"/>
<path fill-rule="evenodd" clip-rule="evenodd" d="M1096 5C1096 8.86599 1099.13 12 1103 12C1106.87 12 1110 8.86599 1110 5H1096Z" fill="#70167E"/>
<path fill-rule="evenodd" clip-rule="evenodd" d="M1110 5C1110 8.86599 1113.13 12 1117 12C1120.87 12 1124 8.86599 1124 5H1110Z" fill="#70167E"/>
<path fill-rule="evenodd" clip-rule="evenodd" d="M1124 5C1124 8.86599 1127.13 12 1131 12C1134.87 12 1138 8.86599 1138 5H1124Z" fill="#70167E"/>
<path fill-rule="evenodd" clip-rule="evenodd" d="M1138 5C1138 8.86599 1141.13 12 1145 12C1148.87 12 1152 8.86599 1152 5H1138Z" fill="#70167E"/>
<path fill-rule="evenodd" clip-rule="evenodd" d="M1152 5C1152 8.86599 1155.13 12 1159 12C1162.87 12 1166 8.86599 1166 5H1152Z" fill="#70167E"/>
<path fill-rule="evenodd" clip-rule="evenodd" d="M1166 5C1166 8.86599 1169.13 12 1173 12C1176.87 12 1180 8.86599 1180 5H1166Z" fill="#70167E"/>
<path fill-rule="evenodd" clip-rule="evenodd" d="M1180 5C1180 8.86599 1183.13 12 1187 12C1190.87 12 1194 8.86599 1194 5H1180Z" fill="#70167E"/>
<path fill-rule="evenodd" clip-rule="evenodd" d="M1194 5C1194 8.86599 1197.13 12 1201 12C1204.87 12 1208 8.86599 1208 5H1194Z" fill="#70167E"/>
<path fill-rule="evenodd" clip-rule="evenodd" d="M1208 5C1208 8.86599 1211.13 12 1215 12C1218.87 12 1222 8.86599 1222 5H1208Z" fill="#70167E"/>
<path fill-rule="evenodd" clip-rule="evenodd" d="M1222 5C1222 8.86599 1225.13 12 1229 12C1232.87 12 1236 8.86599 1236 5H1222Z" fill="#70167E"/>
<path fill-rule="evenodd" clip-rule="evenodd" d="M1236 5C1236 8.86599 1239.13 12 1243 12C1246.87 12 1250 8.86599 1250 5H1236Z" fill="#70167E"/>
<path fill-rule="evenodd" clip-rule="evenodd" d="M1250 5C1250 8.86599 1253.13 12 1257 12C1260.87 12 1264 8.86599 1264 5H1250Z" fill="#70167E"/>
<path fill-rule="evenodd" clip-rule="evenodd" d="M1264 5C1264 8.86599 1267.13 12 1271 12C1274.87 12 1278 8.86599 1278 5H1264Z" fill="#70167E"/>
<path fill-rule="evenodd" clip-rule="evenodd" d="M1278 5C1278 8.86599 1281.13 12 1285 12C1288.87 12 1292 8.86599 1292 5H1278Z" fill="#70167E"/>
<path fill-rule="evenodd" clip-rule="evenodd" d="M1292 5C1292 8.86599 1295.13 12 1299 12C1302.87 12 1306 8.86599 1306 5H1292Z" fill="#70167E"/>
<path fill-rule="evenodd" clip-rule="evenodd" d="M1306 5C1306 8.86599 1309.13 12 1313 12C1316.87 12 1320 8.86599 1320 5H1306Z" fill="#70167E"/>
<path fill-rule="evenodd" clip-rule="evenodd" d="M1320 5C1320 8.86599 1323.13 12 1327 12C1330.87 12 1334 8.86599 1334 5H1320Z" fill="#70167E"/>
<path fill-rule="evenodd" clip-rule="evenodd" d="M1334 5C1334 8.86599 1337.13 12 1341 12C1344.87 12 1348 8.86599 1348 5H1334Z" fill="#70167E"/>
<path fill-rule="evenodd" clip-rule="evenodd" d="M1348 5C1348 8.86599 1351.13 12 1355 12C1358.87 12 1362 8.86599 1362 5H1348Z" fill="#70167E"/>
<path fill-rule="evenodd" clip-rule="evenodd" d="M1362 5C1362 8.86599 1365.13 12 1369 12C1372.87 12 1376 8.86599 1376 5H1362Z" fill="#70167E"/>
<path fill-rule="evenodd" clip-rule="evenodd" d="M1376 5C1376 8.86599 1379.13 12 1383 12C1386.87 12 1390 8.86599 1390 5H1376Z" fill="#70167E"/>
<path fill-rule="evenodd" clip-rule="evenodd" d="M1390 5C1390 8.86599 1393.13 12 1397 12C1400.87 12 1404 8.86599 1404 5H1390Z" fill="#70167E"/>
<path fill-rule="evenodd" clip-rule="evenodd" d="M1404 5C1404 8.86599 1407.13 12 1411 12C1414.87 12 1418 8.86599 1418 5H1404Z" fill="#70167E"/>
<path fill-rule="evenodd" clip-rule="evenodd" d="M1418 5C1418 8.86599 1421.13 12 1425 12C1428.87 12 1432 8.86599 1432 5H1418Z" fill="#70167E"/>
<path fill-rule="evenodd" clip-rule="evenodd" d="M1432 5C1432 8.86599 1435.13 12 1439 12C1442.87 12 1446 8.86599 1446 5H1432Z" fill="#70167E"/>
<path fill-rule="evenodd" clip-rule="evenodd" d="M1446 5C1446 8.86599 1449.13 12 1453 12C1456.87 12 1460 8.86599 1460 5H1446Z" fill="#70167E"/>
<path fill-rule="evenodd" clip-rule="evenodd" d="M1460 5C1460 8.86599 1463.13 12 1467 12C1470.87 12 1474 8.86599 1474 5H1460Z" fill="#70167E"/>
<path fill-rule="evenodd" clip-rule="evenodd" d="M1474 5C1474 8.86599 1477.13 12 1481 12C1484.87 12 1488 8.86599 1488 5H1474Z" fill="#70167E"/>
<path fill-rule="evenodd" clip-rule="evenodd" d="M1488 5C1488 8.86599 1491.13 12 1495 12C1498.87 12 1502 8.86599 1502 5H1488Z" fill="#70167E"/>
<path fill-rule="evenodd" clip-rule="evenodd" d="M1502 5C1502 8.86599 1505.13 12 1509 12C1512.87 12 1516 8.86599 1516 5H1502Z" fill="#70167E"/>
<path fill-rule="evenodd" clip-rule="evenodd" d="M1516 5C1516 8.86599 1519.13 12 1523 12C1526.87 12 1530 8.86599 1530 5H1516Z" fill="#70167E"/>
<path fill-rule="evenodd" clip-rule="evenodd" d="M1530 5C1530 8.86599 1533.13 12 1537 12C1540.87 12 1544 8.86599 1544 5H1530Z" fill="#70167E"/>
<path fill-rule="evenodd" clip-rule="evenodd" d="M1544 5C1544 8.86599 1547.13 12 1551 12C1554.87 12 1558 8.86599 1558 5H1544Z" fill="#70167E"/>
<path fill-rule="evenodd" clip-rule="evenodd" d="M1558 5C1558 8.86599 1561.13 12 1565 12C1568.87 12 1572 8.86599 1572 5H1558Z" fill="#70167E"/>
<path fill-rule="evenodd" clip-rule="evenodd" d="M1572 5C1572 8.86599 1575.13 12 1579 12C1582.87 12 1586 8.86599 1586 5H1572Z" fill="#70167E"/>
<path fill-rule="evenodd" clip-rule="evenodd" d="M1586 5C1586 8.86599 1589.13 12 1593 12C1596.87 12 1600 8.86599 1600 5H1586Z" fill="#70167E"/>
<path fill-rule="evenodd" clip-rule="evenodd" d="M1600 5C1600 8.86599 1603.13 12 1607 12C1610.87 12 1614 8.86599 1614 5H1600Z" fill="#70167E"/>
<path fill-rule="evenodd" clip-rule="evenodd" d="M1614 5C1614 8.86599 1617.13 12 1621 12C1624.87 12 1628 8.86599 1628 5H1614Z" fill="#70167E"/>
<path fill-rule="evenodd" clip-rule="evenodd" d="M1628 5C1628 8.86599 1631.13 12 1635 12C1638.87 12 1642 8.86599 1642 5H1628Z" fill="#70167E"/>
<path fill-rule="evenodd" clip-rule="evenodd" d="M1642 5C1642 8.86599 1645.13 12 1649 12C1652.87 12 1656 8.86599 1656 5H1642Z" fill="#70167E"/>
<path fill-rule="evenodd" clip-rule="evenodd" d="M1656 5C1656 8.86599 1659.13 12 1663 12C1666.87 12 1670 8.86599 1670 5H1656Z" fill="#70167E"/>
<path fill-rule="evenodd" clip-rule="evenodd" d="M1670 5C1670 8.86599 1673.13 12 1677 12C1680.87 12 1684 8.86599 1684 5H1670Z" fill="#70167E"/>
<path fill-rule="evenodd" clip-rule="evenodd" d="M1684 5C1684 8.86599 1687.13 12 1691 12C1694.87 12 1698 8.86599 1698 5H1684Z" fill="#70167E"/>
<path fill-rule="evenodd" clip-rule="evenodd" d="M1698 5C1698 8.86599 1701.13 12 1705 12C1708.87 12 1712 8.86599 1712 5H1698Z" fill="#70167E"/>
<path fill-rule="evenodd" clip-rule="evenodd" d="M1712 5C1712 8.86599 1715.13 12 1719 12C1722.87 12 1726 8.86599 1726 5H1712Z" fill="#70167E"/>
<path fill-rule="evenodd" clip-rule="evenodd" d="M1726 5C1726 8.86599 1729.13 12 1733 12C1736.87 12 1740 8.86599 1740 5H1726Z" fill="#70167E"/>
<path fill-rule="evenodd" clip-rule="evenodd" d="M1740 5C1740 8.86599 1743.13 12 1747 12C1750.87 12 1754 8.86599 1754 5H1740Z" fill="#70167E"/>
<path fill-rule="evenodd" clip-rule="evenodd" d="M1754 5C1754 8.86599 1757.13 12 1761 12C1764.87 12 1768 8.86599 1768 5H1754Z" fill="#70167E"/>
<path fill-rule="evenodd" clip-rule="evenodd" d="M1768 5C1768 8.86599 1771.13 12 1775 12C1778.87 12 1782 8.86599 1782 5H1768Z" fill="#70167E"/>
<path fill-rule="evenodd" clip-rule="evenodd" d="M1782 5C1782 8.86599 1785.13 12 1789 12C1792.87 12 1796 8.86599 1796 5H1782Z" fill="#70167E"/>
<path fill-rule="evenodd" clip-rule="evenodd" d="M1796 5C1796 8.86599 1799.13 12 1803 12C1806.87 12 1810 8.86599 1810 5H1796Z" fill="#70167E"/>
<path fill-rule="evenodd" clip-rule="evenodd" d="M1810 5C1810 8.86599 1813.13 12 1817 12C1820.87 12 1824 8.86599 1824 5H1810Z" fill="#70167E"/>
<path fill-rule="evenodd" clip-rule="evenodd" d="M1824 5C1824 8.86599 1827.13 12 1831 12C1834.87 12 1838 8.86599 1838 5H1824Z" fill="#70167E"/>
<path fill-rule="evenodd" clip-rule="evenodd" d="M1838 5C1838 8.86599 1841.13 12 1845 12C1848.87 12 1852 8.86599 1852 5H1838Z" fill="#70167E"/>
<path fill-rule="evenodd" clip-rule="evenodd" d="M1852 5C1852 8.86599 1855.13 12 1859 12C1862.87 12 1866 8.86599 1866 5H1852Z" fill="#70167E"/>
<path fill-rule="evenodd" clip-rule="evenodd" d="M1866 5C1866 8.86599 1869.13 12 1873 12C1876.87 12 1880 8.86599 1880 5H1866Z" fill="#70167E"/>
<path fill-rule="evenodd" clip-rule="evenodd" d="M1881 5C1881 8.86599 1884.13 12 1888 12C1891.87 12 1895 8.86599 1895 5H1881Z" fill="#70167E"/>
<path fill-rule="evenodd" clip-rule="evenodd" d="M1896 5C1896 8.86599 1899.13 12 1903 12C1906.87 12 1910 8.86599 1910 5H1896Z" fill="#70167E"/>
<path fill-rule="evenodd" clip-rule="evenodd" d="M1910 5C1910 8.86599 1913.13 12 1917 12C1920.87 12 1924 8.86599 1924 5H1910Z" fill="#70167E"/>
</g>
<g filter="url(#filter1_d_2281_3)">
<path fill-rule="evenodd" clip-rule="evenodd" d="M4 0C4 3.86599 7.13401 7 11 7C14.866 7 18 3.86599 18 0H4Z" fill="#70167E"/>
<path fill-rule="evenodd" clip-rule="evenodd" d="M18 0C18 3.86599 21.134 7 25 7C28.866 7 32 3.86599 32 0H18Z" fill="#70167E"/>
<path fill-rule="evenodd" clip-rule="evenodd" d="M32 0C32 3.86599 35.134 7 39 7C42.866 7 46 3.86599 46 0H32Z" fill="#70167E"/>
<path fill-rule="evenodd" clip-rule="evenodd" d="M46 0C46 3.86599 49.134 7 53 7C56.866 7 60 3.86599 60 0H46Z" fill="#70167E"/>
<path fill-rule="evenodd" clip-rule="evenodd" d="M60 0C60 3.86599 63.134 7 67 7C70.866 7 74 3.86599 74 0H60Z" fill="#70167E"/>
<path fill-rule="evenodd" clip-rule="evenodd" d="M74 0C74 3.86599 77.134 7 81 7C84.866 7 88 3.86599 88 0H74Z" fill="#70167E"/>
<path fill-rule="evenodd" clip-rule="evenodd" d="M88 0C88 3.86599 91.134 7 95 7C98.866 7 102 3.86599 102 0H88Z" fill="#70167E"/>
<path fill-rule="evenodd" clip-rule="evenodd" d="M102 0C102 3.86599 105.134 7 109 7C112.866 7 116 3.86599 116 0H102Z" fill="#70167E"/>
<path fill-rule="evenodd" clip-rule="evenodd" d="M116 0C116 3.86599 119.134 7 123 7C126.866 7 130 3.86599 130 0H116Z" fill="#70167E"/>
<path fill-rule="evenodd" clip-rule="evenodd" d="M130 0C130 3.86599 133.134 7 137 7C140.866 7 144 3.86599 144 0H130Z" fill="#70167E"/>
<path fill-rule="evenodd" clip-rule="evenodd" d="M144 0C144 3.86599 147.134 7 151 7C154.866 7 158 3.86599 158 0H144Z" fill="#70167E"/>
<path fill-rule="evenodd" clip-rule="evenodd" d="M158 0C158 3.86599 161.134 7 165 7C168.866 7 172 3.86599 172 0H158Z" fill="#70167E"/>
<path fill-rule="evenodd" clip-rule="evenodd" d="M172 0C172 3.86599 175.134 7 179 7C182.866 7 186 3.86599 186 0H172Z" fill="#70167E"/>
<path fill-rule="evenodd" clip-rule="evenodd" d="M186 0C186 3.86599 189.134 7 193 7C196.866 7 200 3.86599 200 0H186Z" fill="#70167E"/>
<path fill-rule="evenodd" clip-rule="evenodd" d="M200 0C200 3.86599 203.134 7 207 7C210.866 7 214 3.86599 214 0H200Z" fill="#70167E"/>
<path fill-rule="evenodd" clip-rule="evenodd" d="M214 0C214 3.86599 217.134 7 221 7C224.866 7 228 3.86599 228 0H214Z" fill="#70167E"/>
<path fill-rule="evenodd" clip-rule="evenodd" d="M228 0C228 3.86599 231.134 7 235 7C238.866 7 242 3.86599 242 0H228Z" fill="#70167E"/>
<path fill-rule="evenodd" clip-rule="evenodd" d="M242 0C242 3.86599 245.134 7 249 7C252.866 7 256 3.86599 256 0H242Z" fill="#70167E"/>
<path fill-rule="evenodd" clip-rule="evenodd" d="M256 0C256 3.86599 259.134 7 263 7C266.866 7 270 3.86599 270 0H256Z" fill="#70167E"/>
<path fill-rule="evenodd" clip-rule="evenodd" d="M270 0C270 3.86599 273.134 7 277 7C280.866 7 284 3.86599 284 0H270Z" fill="#70167E"/>
<path fill-rule="evenodd" clip-rule="evenodd" d="M284 0C284 3.86599 287.134 7 291 7C294.866 7 298 3.86599 298 0H284Z" fill="#70167E"/>
<path fill-rule="evenodd" clip-rule="evenodd" d="M298 0C298 3.86599 301.134 7 305 7C308.866 7 312 3.86599 312 0H298Z" fill="#70167E"/>
<path fill-rule="evenodd" clip-rule="evenodd" d="M312 0C312 3.86599 315.134 7 319 7C322.866 7 326 3.86599 326 0H312Z" fill="#70167E"/>
<path fill-rule="evenodd" clip-rule="evenodd" d="M326 0C326 3.86599 329.134 7 333 7C336.866 7 340 3.86599 340 0H326Z" fill="#70167E"/>
<path fill-rule="evenodd" clip-rule="evenodd" d="M340 0C340 3.86599 343.134 7 347 7C350.866 7 354 3.86599 354 0H340Z" fill="#70167E"/>
<path fill-rule="evenodd" clip-rule="evenodd" d="M354 0C354 3.86599 357.134 7 361 7C364.866 7 368 3.86599 368 0H354Z" fill="#70167E"/>
<path fill-rule="evenodd" clip-rule="evenodd" d="M368 0C368 3.86599 371.134 7 375 7C378.866 7 382 3.86599 382 0H368Z" fill="#70167E"/>
<path fill-rule="evenodd" clip-rule="evenodd" d="M382 0C382 3.86599 385.134 7 389 7C392.866 7 396 3.86599 396 0H382Z" fill="#70167E"/>
<path fill-rule="evenodd" clip-rule="evenodd" d="M396 0C396 3.86599 399.134 7 403 7C406.866 7 410 3.86599 410 0H396Z" fill="#70167E"/>
<path fill-rule="evenodd" clip-rule="evenodd" d="M410 0C410 3.86599 413.134 7 417 7C420.866 7 424 3.86599 424 0H410Z" fill="#70167E"/>
<path fill-rule="evenodd" clip-rule="evenodd" d="M424 0C424 3.86599 427.134 7 431 7C434.866 7 438 3.86599 438 0H424Z" fill="#70167E"/>
<path fill-rule="evenodd" clip-rule="evenodd" d="M438 0C438 3.86599 441.134 7 445 7C448.866 7 452 3.86599 452 0H438Z" fill="#70167E"/>
<path fill-rule="evenodd" clip-rule="evenodd" d="M452 0C452 3.86599 455.134 7 459 7C462.866 7 466 3.86599 466 0H452Z" fill="#70167E"/>
<path fill-rule="evenodd" clip-rule="evenodd" d="M466 0C466 3.86599 469.134 7 473 7C476.866 7 480 3.86599 480 0H466Z" fill="#70167E"/>
<path fill-rule="evenodd" clip-rule="evenodd" d="M480 0C480 3.86599 483.134 7 487 7C490.866 7 494 3.86599 494 0H480Z" fill="#70167E"/>
<path fill-rule="evenodd" clip-rule="evenodd" d="M494 0C494 3.86599 497.134 7 501 7C504.866 7 508 3.86599 508 0H494Z" fill="#70167E"/>
<path fill-rule="evenodd" clip-rule="evenodd" d="M508 0C508 3.86599 511.134 7 515 7C518.866 7 522 3.86599 522 0H508Z" fill="#70167E"/>
<path fill-rule="evenodd" clip-rule="evenodd" d="M522 0C522 3.86599 525.134 7 529 7C532.866 7 536 3.86599 536 0H522Z" fill="#70167E"/>
<path fill-rule="evenodd" clip-rule="evenodd" d="M536 0C536 3.86599 539.134 7 543 7C546.866 7 550 3.86599 550 0H536Z" fill="#70167E"/>
<path fill-rule="evenodd" clip-rule="evenodd" d="M550 0C550 3.86599 553.134 7 557 7C560.866 7 564 3.86599 564 0H550Z" fill="#70167E"/>
<path fill-rule="evenodd" clip-rule="evenodd" d="M564 0C564 3.86599 567.134 7 571 7C574.866 7 578 3.86599 578 0H564Z" fill="#70167E"/>
<path fill-rule="evenodd" clip-rule="evenodd" d="M578 0C578 3.86599 581.134 7 585 7C588.866 7 592 3.86599 592 0H578Z" fill="#70167E"/>
<path fill-rule="evenodd" clip-rule="evenodd" d="M592 0C592 3.86599 595.134 7 599 7C602.866 7 606 3.86599 606 0H592Z" fill="#70167E"/>
<path fill-rule="evenodd" clip-rule="evenodd" d="M606 0C606 3.86599 609.134 7 613 7C616.866 7 620 3.86599 620 0H606Z" fill="#70167E"/>
<path fill-rule="evenodd" clip-rule="evenodd" d="M620 0C620 3.86599 623.134 7 627 7C630.866 7 634 3.86599 634 0H620Z" fill="#70167E"/>
<path fill-rule="evenodd" clip-rule="evenodd" d="M634 0C634 3.86599 637.134 7 641 7C644.866 7 648 3.86599 648 0H634Z" fill="#70167E"/>
<path fill-rule="evenodd" clip-rule="evenodd" d="M648 0C648 3.86599 651.134 7 655 7C658.866 7 662 3.86599 662 0H648Z" fill="#70167E"/>
<path fill-rule="evenodd" clip-rule="evenodd" d="M662 0C662 3.86599 665.134 7 669 7C672.866 7 676 3.86599 676 0H662Z" fill="#70167E"/>
<path fill-rule="evenodd" clip-rule="evenodd" d="M676 0C676 3.86599 679.134 7 683 7C686.866 7 690 3.86599 690 0H676Z" fill="#70167E"/>
<path fill-rule="evenodd" clip-rule="evenodd" d="M690 0C690 3.86599 693.134 7 697 7C700.866 7 704 3.86599 704 0H690Z" fill="#70167E"/>
<path fill-rule="evenodd" clip-rule="evenodd" d="M704 0C704 3.86599 707.134 7 711 7C714.866 7 718 3.86599 718 0H704Z" fill="#70167E"/>
<path fill-rule="evenodd" clip-rule="evenodd" d="M718 0C718 3.86599 721.134 7 725 7C728.866 7 732 3.86599 732 0H718Z" fill="#70167E"/>
<path fill-rule="evenodd" clip-rule="evenodd" d="M732 0C732 3.86599 735.134 7 739 7C742.866 7 746 3.86599 746 0H732Z" fill="#70167E"/>
<path fill-rule="evenodd" clip-rule="evenodd" d="M746 0C746 3.86599 749.134 7 753 7C756.866 7 760 3.86599 760 0H746Z" fill="#70167E"/>
<path fill-rule="evenodd" clip-rule="evenodd" d="M760 0C760 3.86599 763.134 7 767 7C770.866 7 774 3.86599 774 0H760Z" fill="#70167E"/>
<path fill-rule="evenodd" clip-rule="evenodd" d="M774 0C774 3.86599 777.134 7 781 7C784.866 7 788 3.86599 788 0H774Z" fill="#70167E"/>
<path fill-rule="evenodd" clip-rule="evenodd" d="M788 0C788 3.86599 791.134 7 795 7C798.866 7 802 3.86599 802 0H788Z" fill="#70167E"/>
<path fill-rule="evenodd" clip-rule="evenodd" d="M802 0C802 3.86599 805.134 7 809 7C812.866 7 816 3.86599 816 0H802Z" fill="#70167E"/>
<path fill-rule="evenodd" clip-rule="evenodd" d="M816 0C816 3.86599 819.134 7 823 7C826.866 7 830 3.86599 830 0H816Z" fill="#70167E"/>
<path fill-rule="evenodd" clip-rule="evenodd" d="M830 0C830 3.86599 833.134 7 837 7C840.866 7 844 3.86599 844 0H830Z" fill="#70167E"/>
<path fill-rule="evenodd" clip-rule="evenodd" d="M844 0C844 3.86599 847.134 7 851 7C854.866 7 858 3.86599 858 0H844Z" fill="#70167E"/>
<path fill-rule="evenodd" clip-rule="evenodd" d="M858 0C858 3.86599 861.134 7 865 7C868.866 7 872 3.86599 872 0H858Z" fill="#70167E"/>
<path fill-rule="evenodd" clip-rule="evenodd" d="M872 0C872 3.86599 875.134 7 879 7C882.866 7 886 3.86599 886 0H872Z" fill="#70167E"/>
<path fill-rule="evenodd" clip-rule="evenodd" d="M886 0C886 3.86599 889.134 7 893 7C896.866 7 900 3.86599 900 0H886Z" fill="#70167E"/>
<path fill-rule="evenodd" clip-rule="evenodd" d="M900 0C900 3.86599 903.134 7 907 7C910.866 7 914 3.86599 914 0H900Z" fill="#70167E"/>
<path fill-rule="evenodd" clip-rule="evenodd" d="M914 0C914 3.86599 917.134 7 921 7C924.866 7 928 3.86599 928 0H914Z" fill="#70167E"/>
<path fill-rule="evenodd" clip-rule="evenodd" d="M928 0C928 3.86599 931.134 7 935 7C938.866 7 942 3.86599 942 0H928Z" fill="#70167E"/>
<path fill-rule="evenodd" clip-rule="evenodd" d="M942 0C942 3.86599 945.134 7 949 7C952.866 7 956 3.86599 956 0H942Z" fill="#70167E"/>
<path fill-rule="evenodd" clip-rule="evenodd" d="M956 0C956 3.86599 959.134 7 963 7C966.866 7 970 3.86599 970 0H956Z" fill="#70167E"/>
<path fill-rule="evenodd" clip-rule="evenodd" d="M970 0C970 3.86599 973.134 7 977 7C980.866 7 984 3.86599 984 0H970Z" fill="#70167E"/>
<path fill-rule="evenodd" clip-rule="evenodd" d="M984 0C984 3.86599 987.134 7 991 7C994.866 7 998 3.86599 998 0H984Z" fill="#70167E"/>
<path fill-rule="evenodd" clip-rule="evenodd" d="M998 0C998 3.86599 1001.13 7 1005 7C1008.87 7 1012 3.86599 1012 0H998Z" fill="#70167E"/>
<path fill-rule="evenodd" clip-rule="evenodd" d="M1012 0C1012 3.86599 1015.13 7 1019 7C1022.87 7 1026 3.86599 1026 0H1012Z" fill="#70167E"/>
<path fill-rule="evenodd" clip-rule="evenodd" d="M1026 0C1026 3.86599 1029.13 7 1033 7C1036.87 7 1040 3.86599 1040 0H1026Z" fill="#70167E"/>
<path fill-rule="evenodd" clip-rule="evenodd" d="M1040 0C1040 3.86599 1043.13 7 1047 7C1050.87 7 1054 3.86599 1054 0H1040Z" fill="#70167E"/>
<path fill-rule="evenodd" clip-rule="evenodd" d="M1054 0C1054 3.86599 1057.13 7 1061 7C1064.87 7 1068 3.86599 1068 0H1054Z" fill="#70167E"/>
<path fill-rule="evenodd" clip-rule="evenodd" d="M1068 0C1068 3.86599 1071.13 7 1075 7C1078.87 7 1082 3.86599 1082 0H1068Z" fill="#70167E"/>
<path fill-rule="evenodd" clip-rule="evenodd" d="M1082 0C1082 3.86599 1085.13 7 1089 7C1092.87 7 1096 3.86599 1096 0H1082Z" fill="#70167E"/>
<path fill-rule="evenodd" clip-rule="evenodd" d="M1096 0C1096 3.86599 1099.13 7 1103 7C1106.87 7 1110 3.86599 1110 0H1096Z" fill="#70167E"/>
<path fill-rule="evenodd" clip-rule="evenodd" d="M1110 0C1110 3.86599 1113.13 7 1117 7C1120.87 7 1124 3.86599 1124 0H1110Z" fill="#70167E"/>
<path fill-rule="evenodd" clip-rule="evenodd" d="M1124 0C1124 3.86599 1127.13 7 1131 7C1134.87 7 1138 3.86599 1138 0H1124Z" fill="#70167E"/>
<path fill-rule="evenodd" clip-rule="evenodd" d="M1138 0C1138 3.86599 1141.13 7 1145 7C1148.87 7 1152 3.86599 1152 0H1138Z" fill="#70167E"/>
<path fill-rule="evenodd" clip-rule="evenodd" d="M1152 0C1152 3.86599 1155.13 7 1159 7C1162.87 7 1166 3.86599 1166 0H1152Z" fill="#70167E"/>
<path fill-rule="evenodd" clip-rule="evenodd" d="M1166 0C1166 3.86599 1169.13 7 1173 7C1176.87 7 1180 3.86599 1180 0H1166Z" fill="#70167E"/>
<path fill-rule="evenodd" clip-rule="evenodd" d="M1180 0C1180 3.86599 1183.13 7 1187 7C1190.87 7 1194 3.86599 1194 0H1180Z" fill="#70167E"/>
<path fill-rule="evenodd" clip-rule="evenodd" d="M1194 0C1194 3.86599 1197.13 7 1201 7C1204.87 7 1208 3.86599 1208 0H1194Z" fill="#70167E"/>
<path fill-rule="evenodd" clip-rule="evenodd" d="M1208 0C1208 3.86599 1211.13 7 1215 7C1218.87 7 1222 3.86599 1222 0H1208Z" fill="#70167E"/>
<path fill-rule="evenodd" clip-rule="evenodd" d="M1222 0C1222 3.86599 1225.13 7 1229 7C1232.87 7 1236 3.86599 1236 0H1222Z" fill="#70167E"/>
<path fill-rule="evenodd" clip-rule="evenodd" d="M1236 0C1236 3.86599 1239.13 7 1243 7C1246.87 7 1250 3.86599 1250 0H1236Z" fill="#70167E"/>
<path fill-rule="evenodd" clip-rule="evenodd" d="M1250 0C1250 3.86599 1253.13 7 1257 7C1260.87 7 1264 3.86599 1264 0H1250Z" fill="#70167E"/>
<path fill-rule="evenodd" clip-rule="evenodd" d="M1264 0C1264 3.86599 1267.13 7 1271 7C1274.87 7 1278 3.86599 1278 0H1264Z" fill="#70167E"/>
<path fill-rule="evenodd" clip-rule="evenodd" d="M1278 0C1278 3.86599 1281.13 7 1285 7C1288.87 7 1292 3.86599 1292 0H1278Z" fill="#70167E"/>
<path fill-rule="evenodd" clip-rule="evenodd" d="M1292 0C1292 3.86599 1295.13 7 1299 7C1302.87 7 1306 3.86599 1306 0H1292Z" fill="#70167E"/>
<path fill-rule="evenodd" clip-rule="evenodd" d="M1306 0C1306 3.86599 1309.13 7 1313 7C1316.87 7 1320 3.86599 1320 0H1306Z" fill="#70167E"/>
<path fill-rule="evenodd" clip-rule="evenodd" d="M1320 0C1320 3.86599 1323.13 7 1327 7C1330.87 7 1334 3.86599 1334 0H1320Z" fill="#70167E"/>
<path fill-rule="evenodd" clip-rule="evenodd" d="M1334 0C1334 3.86599 1337.13 7 1341 7C1344.87 7 1348 3.86599 1348 0H1334Z" fill="#70167E"/>
<path fill-rule="evenodd" clip-rule="evenodd" d="M1348 0C1348 3.86599 1351.13 7 1355 7C1358.87 7 1362 3.86599 1362 0H1348Z" fill="#70167E"/>
<path fill-rule="evenodd" clip-rule="evenodd" d="M1362 0C1362 3.86599 1365.13 7 1369 7C1372.87 7 1376 3.86599 1376 0H1362Z" fill="#70167E"/>
<path fill-rule="evenodd" clip-rule="evenodd" d="M1376 0C1376 3.86599 1379.13 7 1383 7C1386.87 7 1390 3.86599 1390 0H1376Z" fill="#70167E"/>
<path fill-rule="evenodd" clip-rule="evenodd" d="M1390 0C1390 3.86599 1393.13 7 1397 7C1400.87 7 1404 3.86599 1404 0H1390Z" fill="#70167E"/>
<path fill-rule="evenodd" clip-rule="evenodd" d="M1404 0C1404 3.86599 1407.13 7 1411 7C1414.87 7 1418 3.86599 1418 0H1404Z" fill="#70167E"/>
<path fill-rule="evenodd" clip-rule="evenodd" d="M1418 0C1418 3.86599 1421.13 7 1425 7C1428.87 7 1432 3.86599 1432 0H1418Z" fill="#70167E"/>
<path fill-rule="evenodd" clip-rule="evenodd" d="M1432 0C1432 3.86599 1435.13 7 1439 7C1442.87 7 1446 3.86599 1446 0H1432Z" fill="#70167E"/>
<path fill-rule="evenodd" clip-rule="evenodd" d="M1446 0C1446 3.86599 1449.13 7 1453 7C1456.87 7 1460 3.86599 1460 0H1446Z" fill="#70167E"/>
<path fill-rule="evenodd" clip-rule="evenodd" d="M1460 0C1460 3.86599 1463.13 7 1467 7C1470.87 7 1474 3.86599 1474 0H1460Z" fill="#70167E"/>
<path fill-rule="evenodd" clip-rule="evenodd" d="M1474 0C1474 3.86599 1477.13 7 1481 7C1484.87 7 1488 3.86599 1488 0H1474Z" fill="#70167E"/>
<path fill-rule="evenodd" clip-rule="evenodd" d="M1488 0C1488 3.86599 1491.13 7 1495 7C1498.87 7 1502 3.86599 1502 0H1488Z" fill="#70167E"/>
<path fill-rule="evenodd" clip-rule="evenodd" d="M1502 0C1502 3.86599 1505.13 7 1509 7C1512.87 7 1516 3.86599 1516 0H1502Z" fill="#70167E"/>
<path fill-rule="evenodd" clip-rule="evenodd" d="M1516 0C1516 3.86599 1519.13 7 1523 7C1526.87 7 1530 3.86599 1530 0H1516Z" fill="#70167E"/>
<path fill-rule="evenodd" clip-rule="evenodd" d="M1530 0C1530 3.86599 1533.13 7 1537 7C1540.87 7 1544 3.86599 1544 0H1530Z" fill="#70167E"/>
<path fill-rule="evenodd" clip-rule="evenodd" d="M1544 0C1544 3.86599 1547.13 7 1551 7C1554.87 7 1558 3.86599 1558 0H1544Z" fill="#70167E"/>
<path fill-rule="evenodd" clip-rule="evenodd" d="M1558 0C1558 3.86599 1561.13 7 1565 7C1568.87 7 1572 3.86599 1572 0H1558Z" fill="#70167E"/>
<path fill-rule="evenodd" clip-rule="evenodd" d="M1572 0C1572 3.86599 1575.13 7 1579 7C1582.87 7 1586 3.86599 1586 0H1572Z" fill="#70167E"/>
<path fill-rule="evenodd" clip-rule="evenodd" d="M1586 0C1586 3.86599 1589.13 7 1593 7C1596.87 7 1600 3.86599 1600 0H1586Z" fill="#70167E"/>
<path fill-rule="evenodd" clip-rule="evenodd" d="M1600 0C1600 3.86599 1603.13 7 1607 7C1610.87 7 1614 3.86599 1614 0H1600Z" fill="#70167E"/>
<path fill-rule="evenodd" clip-rule="evenodd" d="M1614 0C1614 3.86599 1617.13 7 1621 7C1624.87 7 1628 3.86599 1628 0H1614Z" fill="#70167E"/>
<path fill-rule="evenodd" clip-rule="evenodd" d="M1628 0C1628 3.86599 1631.13 7 1635 7C1638.87 7 1642 3.86599 1642 0H1628Z" fill="#70167E"/>
<path fill-rule="evenodd" clip-rule="evenodd" d="M1642 0C1642 3.86599 1645.13 7 1649 7C1652.87 7 1656 3.86599 1656 0H1642Z" fill="#70167E"/>
<path fill-rule="evenodd" clip-rule="evenodd" d="M1656 0C1656 3.86599 1659.13 7 1663 7C1666.87 7 1670 3.86599 1670 0H1656Z" fill="#70167E"/>
<path fill-rule="evenodd" clip-rule="evenodd" d="M1670 0C1670 3.86599 1673.13 7 1677 7C1680.87 7 1684 3.86599 1684 0H1670Z" fill="#70167E"/>
<path fill-rule="evenodd" clip-rule="evenodd" d="M1684 0C1684 3.86599 1687.13 7 1691 7C1694.87 7 1698 3.86599 1698 0H1684Z" fill="#70167E"/>
<path fill-rule="evenodd" clip-rule="evenodd" d="M1698 0C1698 3.86599 1701.13 7 1705 7C1708.87 7 1712 3.86599 1712 0H1698Z" fill="#70167E"/>
<path fill-rule="evenodd" clip-rule="evenodd" d="M1712 0C1712 3.86599 1715.13 7 1719 7C1722.87 7 1726 3.86599 1726 0H1712Z" fill="#70167E"/>
<path fill-rule="evenodd" clip-rule="evenodd" d="M1726 0C1726 3.86599 1729.13 7 1733 7C1736.87 7 1740 3.86599 1740 0H1726Z" fill="#70167E"/>
<path fill-rule="evenodd" clip-rule="evenodd" d="M1740 0C1740 3.86599 1743.13 7 1747 7C1750.87 7 1754 3.86599 1754 0H1740Z" fill="#70167E"/>
<path fill-rule="evenodd" clip-rule="evenodd" d="M1754 0C1754 3.86599 1757.13 7 1761 7C1764.87 7 1768 3.86599 1768 0H1754Z" fill="#70167E"/>
<path fill-rule="evenodd" clip-rule="evenodd" d="M1768 0C1768 3.86599 1771.13 7 1775 7C1778.87 7 1782 3.86599 1782 0H1768Z" fill="#70167E"/>
<path fill-rule="evenodd" clip-rule="evenodd" d="M1782 0C1782 3.86599 1785.13 7 1789 7C1792.87 7 1796 3.86599 1796 0H1782Z" fill="#70167E"/>
<path fill-rule="evenodd" clip-rule="evenodd" d="M1796 0C1796 3.86599 1799.13 7 1803 7C1806.87 7 1810 3.86599 1810 0H1796Z" fill="#70167E"/>
<path fill-rule="evenodd" clip-rule="evenodd" d="M1810 0C1810 3.86599 1813.13 7 1817 7C1820.87 7 1824 3.86599 1824 0H1810Z" fill="#70167E"/>
<path fill-rule="evenodd" clip-rule="evenodd" d="M1824 0C1824 3.86599 1827.13 7 1831 7C1834.87 7 1838 3.86599 1838 0H1824Z" fill="#70167E"/>
<path fill-rule="evenodd" clip-rule="evenodd" d="M1838 0C1838 3.86599 1841.13 7 1845 7C1848.87 7 1852 3.86599 1852 0H1838Z" fill="#70167E"/>
<path fill-rule="evenodd" clip-rule="evenodd" d="M1852 0C1852 3.86599 1855.13 7 1859 7C1862.87 7 1866 3.86599 1866 0H1852Z" fill="#70167E"/>
<path fill-rule="evenodd" clip-rule="evenodd" d="M1866 0C1866 3.86599 1869.13 7 1873 7C1876.87 7 1880 3.86599 1880 0H1866Z" fill="#70167E"/>
<path fill-rule="evenodd" clip-rule="evenodd" d="M1881 0C1881 3.86599 1884.13 7 1888 7C1891.87 7 1895 3.86599 1895 0H1881Z" fill="#70167E"/>
<path fill-rule="evenodd" clip-rule="evenodd" d="M1896 0C1896 3.86599 1899.13 7 1903 7C1906.87 7 1910 3.86599 1910 0H1896Z" fill="#70167E"/>
<path fill-rule="evenodd" clip-rule="evenodd" d="M1910 0C1910 3.86599 1913.13 7 1917 7C1920.87 7 1924 3.86599 1924 0H1910Z" fill="#70167E"/>
</g>
<defs>
<filter id="filter0_d_2281_3" x="0" y="5" width="1928" height="28" filterUnits="userSpaceOnUse" color-interpolation-filters="sRGB">
<feFlood flood-opacity="0" result="BackgroundImageFix"/>
<feColorMatrix in="SourceAlpha" type="matrix" values="0 0 0 0 0 0 0 0 0 0 0 0 0 0 0 0 0 0 127 0" result="hardAlpha"/>
<feOffset dy="4"/>
<feGaussianBlur stdDeviation="2"/>
<feComposite in2="hardAlpha" operator="out"/>
<feColorMatrix type="matrix" values="0 0 0 0 0 0 0 0 0 0 0 0 0 0 0 0 0 0 0.05 0"/>
<feBlend mode="normal" in2="BackgroundImageFix" result="effect1_dropShadow_2281_3"/>
<feBlend mode="normal" in="SourceGraphic" in2="effect1_dropShadow_2281_3" result="shape"/>
</filter>
<filter id="filter1_d_2281_3" x="0" y="0" width="1928" height="15" filterUnits="userSpaceOnUse" color-interpolation-filters="sRGB">
<feFlood flood-opacity="0" result="BackgroundImageFix"/>
<feColorMatrix in="SourceAlpha" type="matrix" values="0 0 0 0 0 0 0 0 0 0 0 0 0 0 0 0 0 0 127 0" result="hardAlpha"/>
<feOffset dy="4"/>
<feGaussianBlur stdDeviation="2"/>
<feComposite in2="hardAlpha" operator="out"/>
<feColorMatrix type="matrix" values="0 0 0 0 0 0 0 0 0 0 0 0 0 0 0 0 0 0 0.05 0"/>
<feBlend mode="normal" in2="BackgroundImageFix" result="effect1_dropShadow_2281_3"/>
<feBlend mode="normal" in="SourceGraphic" in2="effect1_dropShadow_2281_3" result="shape"/>
</filter>
</defs>
</svg>
