<svg width="2361" height="9" viewBox="0 0 2361 9" fill="none" xmlns="http://www.w3.org/2000/svg">
<path d="M17.2156 0C17.2156 4.97056 13.3618 9 8.60781 9C3.85385 9 0 4.97056 0 0H17.2156Z" fill="#F8F8F8"/>
<path d="M34.4312 0C34.4312 4.97056 30.5774 9 25.8234 9C21.0695 9 17.2156 4.97056 17.2156 0H34.4312Z" fill="#F8F8F8"/>
<path d="M51.6469 0C51.6469 4.97056 47.793 9 43.0391 9C38.2851 9 34.4312 4.97056 34.4312 0H51.6469Z" fill="#F8F8F8"/>
<path d="M68.8625 0C68.8625 4.97056 65.0086 9 60.2547 9C55.5007 9 51.6469 4.97056 51.6469 0H68.8625Z" fill="#F8F8F8"/>
<path d="M86.0781 0C86.0781 4.97056 82.2243 9 77.4703 9C72.7163 9 68.8625 4.97056 68.8625 0H86.0781Z" fill="#F8F8F8"/>
<path d="M103.294 0C103.294 4.97056 99.4399 9 94.6859 9C89.932 9 86.0781 4.97056 86.0781 0H103.294Z" fill="#F8F8F8"/>
<path d="M120.509 0C120.509 4.97056 116.656 9 111.902 9C107.148 9 103.294 4.97056 103.294 0H120.509Z" fill="#F8F8F8"/>
<path d="M137.725 0C137.725 4.97056 133.871 9 129.117 9C124.363 9 120.509 4.97056 120.509 0H137.725Z" fill="#F8F8F8"/>
<path d="M154.941 0C154.941 4.97056 151.087 9 146.333 9C141.579 9 137.725 4.97056 137.725 0H154.941Z" fill="#F8F8F8"/>
<path d="M172.156 0C172.156 4.97056 168.302 9 163.548 9C158.794 9 154.941 4.97056 154.941 0H172.156Z" fill="#F8F8F8"/>
<path d="M189.372 0C189.372 4.97056 185.518 9 180.764 9C176.01 9 172.156 4.97056 172.156 0H189.372Z" fill="#F8F8F8"/>
<path d="M206.587 0C206.587 4.97056 202.734 9 197.98 9C193.226 9 189.372 4.97056 189.372 0H206.587Z" fill="#F8F8F8"/>
<path d="M223.803 0C223.803 4.97056 219.949 9 215.195 9C210.441 9 206.587 4.97056 206.587 0H223.803Z" fill="#F8F8F8"/>
<path d="M241.019 0C241.019 4.97056 237.165 9 232.411 9C227.657 9 223.803 4.97056 223.803 0H241.019Z" fill="#F8F8F8"/>
<path d="M258.234 0C258.234 4.97056 254.381 9 249.627 9C244.873 9 241.019 4.97056 241.019 0H258.234Z" fill="#F8F8F8"/>
<path d="M275.45 0C275.45 4.97056 271.596 9 266.842 9C262.088 9 258.234 4.97056 258.234 0H275.45Z" fill="#F8F8F8"/>
<path d="M292.666 0C292.666 4.97056 288.812 9 284.058 9C279.304 9 275.45 4.97056 275.45 0H292.666Z" fill="#F8F8F8"/>
<path d="M309.881 0C309.881 4.97056 306.027 9 301.273 9C296.519 9 292.666 4.97056 292.666 0H309.881Z" fill="#F8F8F8"/>
<path d="M327.097 0C327.097 4.97056 323.243 9 318.489 9C313.735 9 309.881 4.97056 309.881 0H327.097Z" fill="#F8F8F8"/>
<path d="M344.312 0C344.312 4.97056 340.459 9 335.705 9C330.951 9 327.097 4.97056 327.097 0H344.312Z" fill="#F8F8F8"/>
<path d="M361.528 0C361.528 4.97056 357.674 9 352.92 9C348.166 9 344.312 4.97056 344.312 0H361.528Z" fill="#F8F8F8"/>
<path d="M378.744 0C378.744 4.97056 374.89 9 370.136 9C365.382 9 361.528 4.97056 361.528 0H378.744Z" fill="#F8F8F8"/>
<path d="M395.959 0C395.959 4.97056 392.106 9 387.352 9C382.598 9 378.744 4.97056 378.744 0H395.959Z" fill="#F8F8F8"/>
<path d="M413.175 0C413.175 4.97056 409.321 9 404.567 9C399.813 9 395.959 4.97056 395.959 0H413.175Z" fill="#F8F8F8"/>
<path d="M430.391 0C430.391 4.97056 426.537 9 421.783 9C417.029 9 413.175 4.97056 413.175 0H430.391Z" fill="#F8F8F8"/>
<path d="M447.606 0C447.606 4.97056 443.752 9 438.998 9C434.244 9 430.391 4.97056 430.391 0H447.606Z" fill="#F8F8F8"/>
<path d="M464.822 0C464.822 4.97056 460.968 9 456.214 9C451.46 9 447.606 4.97056 447.606 0H464.822Z" fill="#F8F8F8"/>
<path d="M482.037 0C482.037 4.97056 478.184 9 473.43 9C468.676 9 464.822 4.97056 464.822 0H482.037Z" fill="#F8F8F8"/>
<path d="M499.253 0C499.253 4.97056 495.399 9 490.645 9C485.891 9 482.037 4.97056 482.037 0H499.253Z" fill="#F8F8F8"/>
<path d="M516.469 0C516.469 4.97056 512.615 9 507.861 9C503.107 9 499.253 4.97056 499.253 0H516.469Z" fill="#F8F8F8"/>
<path d="M533.684 0C533.684 4.97056 529.831 9 525.077 9C520.323 9 516.469 4.97056 516.469 0H533.684Z" fill="#F8F8F8"/>
<path d="M550.9 0C550.9 4.97056 547.046 9 542.292 9C537.538 9 533.684 4.97056 533.684 0H550.9Z" fill="#F8F8F8"/>
<path d="M568.116 0C568.116 4.97056 564.262 9 559.508 9C554.754 9 550.9 4.97056 550.9 0H568.116Z" fill="#F8F8F8"/>
<path d="M585.331 0C585.331 4.97056 581.477 9 576.723 9C571.969 9 568.116 4.97056 568.116 0H585.331Z" fill="#F8F8F8"/>
<path d="M602.547 0C602.547 4.97056 598.693 9 593.939 9C589.185 9 585.331 4.97056 585.331 0H602.547Z" fill="#F8F8F8"/>
<path d="M619.762 0C619.762 4.97056 615.909 9 611.155 9C606.401 9 602.547 4.97056 602.547 0H619.762Z" fill="#F8F8F8"/>
<path d="M636.978 0C636.978 4.97056 633.124 9 628.37 9C623.616 9 619.762 4.97056 619.762 0H636.978Z" fill="#F8F8F8"/>
<path d="M654.194 0C654.194 4.97056 650.34 9 645.586 9C640.832 9 636.978 4.97056 636.978 0H654.194Z" fill="#F8F8F8"/>
<path d="M671.409 0C671.409 4.97056 667.556 9 662.802 9C658.048 9 654.194 4.97056 654.194 0H671.409Z" fill="#F8F8F8"/>
<path d="M688.625 0C688.625 4.97056 684.771 9 680.017 9C675.263 9 671.409 4.97056 671.409 0H688.625Z" fill="#F8F8F8"/>
<path d="M705.841 0C705.841 4.97056 701.987 9 697.233 9C692.479 9 688.625 4.97056 688.625 0H705.841Z" fill="#F8F8F8"/>
<path d="M723.056 0C723.056 4.97056 719.202 9 714.448 9C709.694 9 705.841 4.97056 705.841 0H723.056Z" fill="#F8F8F8"/>
<path d="M740.272 0C740.272 4.97056 736.418 9 731.664 9C726.91 9 723.056 4.97056 723.056 0H740.272Z" fill="#F8F8F8"/>
<path d="M757.487 0C757.487 4.97056 753.634 9 748.88 9C744.126 9 740.272 4.97056 740.272 0H757.487Z" fill="#F8F8F8"/>
<path d="M774.703 0C774.703 4.97056 770.849 9 766.095 9C761.341 9 757.487 4.97056 757.487 0H774.703Z" fill="#F8F8F8"/>
<path d="M791.919 0C791.919 4.97056 788.065 9 783.311 9C778.557 9 774.703 4.97056 774.703 0H791.919Z" fill="#F8F8F8"/>
<path d="M809.134 0C809.134 4.97056 805.28 9 800.527 9C795.773 9 791.919 4.97056 791.919 0H809.134Z" fill="#F8F8F8"/>
<path d="M826.35 0C826.35 4.97056 822.496 9 817.742 9C812.988 9 809.134 4.97056 809.134 0H826.35Z" fill="#F8F8F8"/>
<path d="M843.566 0C843.566 4.97056 839.712 9 834.958 9C830.204 9 826.35 4.97056 826.35 0H843.566Z" fill="#F8F8F8"/>
<path d="M860.781 0C860.781 4.97056 856.927 9 852.173 9C847.419 9 843.566 4.97056 843.566 0H860.781Z" fill="#F8F8F8"/>
<path d="M877.997 0C877.997 4.97056 874.143 9 869.389 9C864.635 9 860.781 4.97056 860.781 0H877.997Z" fill="#F8F8F8"/>
<path d="M895.212 0C895.212 4.97056 891.359 9 886.605 9C881.851 9 877.997 4.97056 877.997 0H895.212Z" fill="#F8F8F8"/>
<path d="M912.428 0C912.428 4.97056 908.574 9 903.82 9C899.066 9 895.212 4.97056 895.212 0H912.428Z" fill="#F8F8F8"/>
<path d="M929.644 0C929.644 4.97056 925.79 9 921.036 9C916.282 9 912.428 4.97056 912.428 0H929.644Z" fill="#F8F8F8"/>
<path d="M946.859 0C946.859 4.97056 943.005 9 938.252 9C933.498 9 929.644 4.97056 929.644 0H946.859Z" fill="#F8F8F8"/>
<path d="M964.075 0C964.075 4.97056 960.221 9 955.467 9C950.713 9 946.859 4.97056 946.859 0H964.075Z" fill="#F8F8F8"/>
<path d="M981.291 0C981.291 4.97056 977.437 9 972.683 9C967.929 9 964.075 4.97056 964.075 0H981.291Z" fill="#F8F8F8"/>
<path d="M998.506 0C998.506 4.97056 994.652 9 989.898 9C985.144 9 981.291 4.97056 981.291 0H998.506Z" fill="#F8F8F8"/>
<path d="M1015.72 0C1015.72 4.97056 1011.87 9 1007.11 9C1002.36 9 998.506 4.97056 998.506 0H1015.72Z" fill="#F8F8F8"/>
<path d="M1032.94 0C1032.94 4.97056 1029.08 9 1024.33 9C1019.58 9 1015.72 4.97056 1015.72 0H1032.94Z" fill="#F8F8F8"/>
<path d="M1050.15 0C1050.15 4.97056 1046.3 9 1041.55 9C1036.79 9 1032.94 4.97056 1032.94 0H1050.15Z" fill="#F8F8F8"/>
<path d="M1067.37 0C1067.37 4.97056 1063.51 9 1058.76 9C1054.01 9 1050.15 4.97056 1050.15 0H1067.37Z" fill="#F8F8F8"/>
<path d="M1084.58 0C1084.58 4.97056 1080.73 9 1075.98 9C1071.22 9 1067.37 4.97056 1067.37 0H1084.58Z" fill="#F8F8F8"/>
<path d="M1101.8 0C1101.8 4.97056 1097.95 9 1093.19 9C1088.44 9 1084.58 4.97056 1084.58 0H1101.8Z" fill="#F8F8F8"/>
<path d="M1119.02 0C1119.02 4.97056 1115.16 9 1110.41 9C1105.65 9 1101.8 4.97056 1101.8 0H1119.02Z" fill="#F8F8F8"/>
<path d="M1136.23 0C1136.23 4.97056 1132.38 9 1127.62 9C1122.87 9 1119.02 4.97056 1119.02 0H1136.23Z" fill="#F8F8F8"/>
<path d="M1153.45 0C1153.45 4.97056 1149.59 9 1144.84 9C1140.09 9 1136.23 4.97056 1136.23 0H1153.45Z" fill="#F8F8F8"/>
<path d="M1170.66 0C1170.66 4.97056 1166.81 9 1162.05 9C1157.3 9 1153.45 4.97056 1153.45 0H1170.66Z" fill="#F8F8F8"/>
<path d="M1187.88 0C1187.88 4.97056 1184.02 9 1179.27 9C1174.52 9 1170.66 4.97056 1170.66 0H1187.88Z" fill="#F8F8F8"/>
<path d="M1205.09 0C1205.09 4.97056 1201.24 9 1196.49 9C1191.73 9 1187.88 4.97056 1187.88 0H1205.09Z" fill="#F8F8F8"/>
<path d="M1222.31 0C1222.31 4.97056 1218.46 9 1213.7 9C1208.95 9 1205.09 4.97056 1205.09 0H1222.31Z" fill="#F8F8F8"/>
<path d="M1239.52 0C1239.52 4.97056 1235.67 9 1230.92 9C1226.16 9 1222.31 4.97056 1222.31 0H1239.52Z" fill="#F8F8F8"/>
<path d="M1256.74 0C1256.74 4.97056 1252.89 9 1248.13 9C1243.38 9 1239.52 4.97056 1239.52 0H1256.74Z" fill="#F8F8F8"/>
<path d="M1273.96 0C1273.96 4.97056 1270.1 9 1265.35 9C1260.59 9 1256.74 4.97056 1256.74 0H1273.96Z" fill="#F8F8F8"/>
<path d="M1291.17 0C1291.17 4.97056 1287.32 9 1282.56 9C1277.81 9 1273.96 4.97056 1273.96 0H1291.17Z" fill="#F8F8F8"/>
<path d="M1308.39 0C1308.39 4.97056 1304.53 9 1299.78 9C1295.03 9 1291.17 4.97056 1291.17 0H1308.39Z" fill="#F8F8F8"/>
<path d="M1325.6 0C1325.6 4.97056 1321.75 9 1317 9C1312.24 9 1308.39 4.97056 1308.39 0H1325.6Z" fill="#F8F8F8"/>
<path d="M1342.82 0C1342.82 4.97056 1338.96 9 1334.21 9C1329.46 9 1325.6 4.97056 1325.6 0H1342.82Z" fill="#F8F8F8"/>
<path d="M1360.03 0C1360.03 4.97056 1356.18 9 1351.43 9C1346.67 9 1342.82 4.97056 1342.82 0H1360.03Z" fill="#F8F8F8"/>
<path d="M1377.25 0C1377.25 4.97056 1373.4 9 1368.64 9C1363.89 9 1360.03 4.97056 1360.03 0H1377.25Z" fill="#F8F8F8"/>
<path d="M1394.47 0C1394.47 4.97056 1390.61 9 1385.86 9C1381.1 9 1377.25 4.97056 1377.25 0H1394.47Z" fill="#F8F8F8"/>
<path d="M1411.68 0C1411.68 4.97056 1407.83 9 1403.07 9C1398.32 9 1394.47 4.97056 1394.47 0H1411.68Z" fill="#F8F8F8"/>
<path d="M1428.9 0C1428.9 4.97056 1425.04 9 1420.29 9C1415.54 9 1411.68 4.97056 1411.68 0H1428.9Z" fill="#F8F8F8"/>
<path d="M1446.11 0C1446.11 4.97056 1442.26 9 1437.5 9C1432.75 9 1428.9 4.97056 1428.9 0H1446.11Z" fill="#F8F8F8"/>
<path d="M1463.33 0C1463.33 4.97056 1459.47 9 1454.72 9C1449.97 9 1446.11 4.97056 1446.11 0H1463.33Z" fill="#F8F8F8"/>
<path d="M1480.54 0C1480.54 4.97056 1476.69 9 1471.94 9C1467.18 9 1463.33 4.97056 1463.33 0H1480.54Z" fill="#F8F8F8"/>
<path d="M1497.76 0C1497.76 4.97056 1493.91 9 1489.15 9C1484.4 9 1480.54 4.97056 1480.54 0H1497.76Z" fill="#F8F8F8"/>
<path d="M1514.97 0C1514.97 4.97056 1511.12 9 1506.37 9C1501.61 9 1497.76 4.97056 1497.76 0H1514.97Z" fill="#F8F8F8"/>
<path d="M1532.19 0C1532.19 4.97056 1528.34 9 1523.58 9C1518.83 9 1514.97 4.97056 1514.97 0H1532.19Z" fill="#F8F8F8"/>
<path d="M1549.41 0C1549.41 4.97056 1545.55 9 1540.8 9C1536.04 9 1532.19 4.97056 1532.19 0H1549.41Z" fill="#F8F8F8"/>
<path d="M1566.62 0C1566.62 4.97056 1562.77 9 1558.01 9C1553.26 9 1549.41 4.97056 1549.41 0H1566.62Z" fill="#F8F8F8"/>
<path d="M1583.84 0C1583.84 4.97056 1579.98 9 1575.23 9C1570.48 9 1566.62 4.97056 1566.62 0H1583.84Z" fill="#F8F8F8"/>
<path d="M1601.05 0C1601.05 4.97056 1597.2 9 1592.45 9C1587.69 9 1583.84 4.97056 1583.84 0H1601.05Z" fill="#F8F8F8"/>
<path d="M1618.27 0C1618.27 4.97056 1614.41 9 1609.66 9C1604.91 9 1601.05 4.97056 1601.05 0H1618.27Z" fill="#F8F8F8"/>
<path d="M1635.48 0C1635.48 4.97056 1631.63 9 1626.88 9C1622.12 9 1618.27 4.97056 1618.27 0H1635.48Z" fill="#F8F8F8"/>
<path d="M1652.7 0C1652.7 4.97056 1648.85 9 1644.09 9C1639.34 9 1635.48 4.97056 1635.48 0H1652.7Z" fill="#F8F8F8"/>
<path d="M1669.92 0C1669.92 4.97056 1666.06 9 1661.31 9C1656.55 9 1652.7 4.97056 1652.7 0H1669.92Z" fill="#F8F8F8"/>
<path d="M1687.13 0C1687.13 4.97056 1683.28 9 1678.52 9C1673.77 9 1669.92 4.97056 1669.92 0H1687.13Z" fill="#F8F8F8"/>
<path d="M1704.35 0C1704.35 4.97056 1700.49 9 1695.74 9C1690.99 9 1687.13 4.97056 1687.13 0H1704.35Z" fill="#F8F8F8"/>
<path d="M1721.56 0C1721.56 4.97056 1717.71 9 1712.95 9C1708.2 9 1704.35 4.97056 1704.35 0H1721.56Z" fill="#F8F8F8"/>
<path d="M1738.78 0C1738.78 4.97056 1734.92 9 1730.17 9C1725.42 9 1721.56 4.97056 1721.56 0H1738.78Z" fill="#F8F8F8"/>
<path d="M1755.99 0C1755.99 4.97056 1752.14 9 1747.39 9C1742.63 9 1738.78 4.97056 1738.78 0H1755.99Z" fill="#F8F8F8"/>
<path d="M1773.21 0C1773.21 4.97056 1769.36 9 1764.6 9C1759.85 9 1755.99 4.97056 1755.99 0H1773.21Z" fill="#F8F8F8"/>
<path d="M1790.42 0C1790.42 4.97056 1786.57 9 1781.82 9C1777.06 9 1773.21 4.97056 1773.21 0H1790.42Z" fill="#F8F8F8"/>
<path d="M1807.64 0C1807.64 4.97056 1803.79 9 1799.03 9C1794.28 9 1790.42 4.97056 1790.42 0H1807.64Z" fill="#F8F8F8"/>
<path d="M1824.86 0C1824.86 4.97056 1821 9 1816.25 9C1811.49 9 1807.64 4.97056 1807.64 0H1824.86Z" fill="#F8F8F8"/>
<path d="M1842.07 0C1842.07 4.97056 1838.22 9 1833.46 9C1828.71 9 1824.86 4.97056 1824.86 0H1842.07Z" fill="#F8F8F8"/>
<path d="M1859.29 0C1859.29 4.97056 1855.43 9 1850.68 9C1845.93 9 1842.07 4.97056 1842.07 0H1859.29Z" fill="#F8F8F8"/>
<path d="M1876.5 0C1876.5 4.97056 1872.65 9 1867.9 9C1863.14 9 1859.29 4.97056 1859.29 0H1876.5Z" fill="#F8F8F8"/>
<path d="M1893.72 0C1893.72 4.97056 1889.86 9 1885.11 9C1880.36 9 1876.5 4.97056 1876.5 0H1893.72Z" fill="#F8F8F8"/>
<path d="M1910.93 0C1910.93 4.97056 1907.08 9 1902.33 9C1897.57 9 1893.72 4.97056 1893.72 0H1910.93Z" fill="#F8F8F8"/>
<path d="M1928.15 0C1928.15 4.97056 1924.3 9 1919.54 9C1914.79 9 1910.93 4.97056 1910.93 0H1928.15Z" fill="#F8F8F8"/>
<path d="M1945.37 0C1945.37 4.97056 1941.51 9 1936.76 9C1932 9 1928.15 4.97056 1928.15 0H1945.37Z" fill="#F8F8F8"/>
<path d="M1962.58 0C1962.58 4.97056 1958.73 9 1953.97 9C1949.22 9 1945.37 4.97056 1945.37 0H1962.58Z" fill="#F8F8F8"/>
<path d="M1979.8 0C1979.8 4.97056 1975.94 9 1971.19 9C1966.44 9 1962.58 4.97056 1962.58 0H1979.8Z" fill="#F8F8F8"/>
<path d="M1997.01 0C1997.01 4.97056 1993.16 9 1988.4 9C1983.65 9 1979.8 4.97056 1979.8 0H1997.01Z" fill="#F8F8F8"/>
<path d="M2014.23 0C2014.23 4.97056 2010.37 9 2005.62 9C2000.87 9 1997.01 4.97056 1997.01 0H2014.23Z" fill="#F8F8F8"/>
<path d="M2031.44 0C2031.44 4.97056 2027.59 9 2022.84 9C2018.08 9 2014.23 4.97056 2014.23 0H2031.44Z" fill="#F8F8F8"/>
<path d="M2048.66 0C2048.66 4.97056 2044.81 9 2040.05 9C2035.3 9 2031.44 4.97056 2031.44 0H2048.66Z" fill="#F8F8F8"/>
<path d="M2065.87 0C2065.87 4.97056 2062.02 9 2057.27 9C2052.51 9 2048.66 4.97056 2048.66 0H2065.87Z" fill="#F8F8F8"/>
<path d="M2083.09 0C2083.09 4.97056 2079.24 9 2074.48 9C2069.73 9 2065.87 4.97056 2065.87 0H2083.09Z" fill="#F8F8F8"/>
<path d="M2100.31 0C2100.31 4.97056 2096.45 9 2091.7 9C2086.94 9 2083.09 4.97056 2083.09 0H2100.31Z" fill="#F8F8F8"/>
<path d="M2117.52 0C2117.52 4.97056 2113.67 9 2108.91 9C2104.16 9 2100.31 4.97056 2100.31 0H2117.52Z" fill="#F8F8F8"/>
<path d="M2134.74 0C2134.74 4.97056 2130.88 9 2126.13 9C2121.38 9 2117.52 4.97056 2117.52 0H2134.74Z" fill="#F8F8F8"/>
<path d="M2151.95 0C2151.95 4.97056 2148.1 9 2143.35 9C2138.59 9 2134.74 4.97056 2134.74 0H2151.95Z" fill="#F8F8F8"/>
<path d="M2169.17 0C2169.17 4.97056 2165.31 9 2160.56 9C2155.81 9 2151.95 4.97056 2151.95 0H2169.17Z" fill="#F8F8F8"/>
<path d="M2186.38 0C2186.38 4.97056 2182.53 9 2177.78 9C2173.02 9 2169.17 4.97056 2169.17 0H2186.38Z" fill="#F8F8F8"/>
<path d="M2203.6 0C2203.6 4.97056 2199.75 9 2194.99 9C2190.24 9 2186.38 4.97056 2186.38 0H2203.6Z" fill="#F8F8F8"/>
<path d="M2220.82 0C2220.82 4.97056 2216.96 9 2212.21 9C2207.45 9 2203.6 4.97056 2203.6 0H2220.82Z" fill="#F8F8F8"/>
<path d="M2238.03 0C2238.03 4.97056 2234.18 9 2229.42 9C2224.67 9 2220.82 4.97056 2220.82 0H2238.03Z" fill="#F8F8F8"/>
<path d="M2255.25 0C2255.25 4.97056 2251.39 9 2246.64 9C2241.89 9 2238.03 4.97056 2238.03 0H2255.25Z" fill="#F8F8F8"/>
<path d="M2272.46 0C2272.46 4.97056 2268.61 9 2263.85 9C2259.1 9 2255.25 4.97056 2255.25 0H2272.46Z" fill="#F8F8F8"/>
<path d="M2289.68 0C2289.68 4.97056 2285.82 9 2281.07 9C2276.32 9 2272.46 4.97056 2272.46 0H2289.68Z" fill="#F8F8F8"/>
<path d="M2306.89 0C2306.89 4.97056 2303.04 9 2298.29 9C2293.53 9 2289.68 4.97056 2289.68 0H2306.89Z" fill="#F8F8F8"/>
<path d="M2325.34 0C2325.34 4.97056 2321.49 9 2316.73 9C2311.98 9 2308.12 4.97056 2308.12 0H2325.34Z" fill="#F8F8F8"/>
<path d="M2343.78 0C2343.78 4.97056 2339.93 9 2335.18 9C2330.42 9 2326.57 4.97056 2326.57 0H2343.78Z" fill="#F8F8F8"/>
<path d="M2361 0C2361 4.97056 2357.15 9 2352.39 9C2347.64 9 2343.78 4.97056 2343.78 0H2361Z" fill="#F8F8F8"/>
</svg>
